<svg width="80" height="80" viewBox="0 0 80 80" fill="none" xmlns="http://www.w3.org/2000/svg">
<g filter="url(#filter0_d_74_318)">
<rect x="20" y="20" width="40" height="40" rx="16" fill="#1313EC" shape-rendering="crispEdges"/>
<path d="M32 48C31.45 48 30.9792 47.8042 30.5875 47.4125C30.1958 47.0208 30 46.55 30 46V34C30 33.45 30.1958 32.9792 30.5875 32.5875C30.9792 32.1958 31.45 32 32 32H48C48.55 32 49.0208 32.1958 49.4125 32.5875C49.8042 32.9792 50 33.45 50 34V46C50 46.55 49.8042 47.0208 49.4125 47.4125C49.0208 47.8042 48.55 48 48 48H32ZM32 46H48V36H32V46ZM35.5 45L34.1 43.6L36.675 41L34.075 38.4L35.5 37L39.5 41L35.5 45ZM40 45V43H46V45H40Z" fill="white"/>
</g>
<defs>
<filter id="filter0_d_74_318" x="0" y="0" width="80" height="80" filterUnits="userSpaceOnUse" color-interpolation-filters="sRGB">
<feFlood flood-opacity="0" result="BackgroundImageFix"/>
<feColorMatrix in="SourceAlpha" type="matrix" values="0 0 0 0 0 0 0 0 0 0 0 0 0 0 0 0 0 0 127 0" result="hardAlpha"/>
<feOffset/>
<feGaussianBlur stdDeviation="10"/>
<feComposite in2="hardAlpha" operator="out"/>
<feColorMatrix type="matrix" values="0 0 0 0 0.0745098 0 0 0 0 0.0745098 0 0 0 0 0.92549 0 0 0 0.4 0"/>
<feBlend mode="normal" in2="BackgroundImageFix" result="effect1_dropShadow_74_318"/>
<feBlend mode="normal" in="SourceGraphic" in2="effect1_dropShadow_74_318" result="shape"/>
</filter>
</defs>
</svg>
