<svg width="40" height="40" viewBox="0 0 40 40" fill="none" xmlns="http://www.w3.org/2000/svg">
<rect width="40" height="40" rx="20" fill="#F4F9FF"/>
<path d="M28.6667 11.3333C26 8.66667 22.3333 10.3333 21.3333 11.3333L19.3333 13.3333L26.6667 20.6667L28.6667 18.6667C29.6667 17.6667 31.3333 14 28.6667 11.3333ZM28.6667 11.3333L32 8M11.3333 28.6667C14 31.3333 17.6667 29.6667 18.6667 28.6667L20.6667 26.6667L13.3333 19.3333L11.3333 21.3333C10.3333 22.3333 8.66667 26 11.3333 28.6667ZM11.3333 28.6667L8 32M19.3333 25.3333L22 22.6667M14.6667 20.6667L17.3333 18" stroke="url(#paint0_linear_8_1430)" stroke-width="2.66667" stroke-linecap="round" stroke-linejoin="round"/>
<defs>
<linearGradient id="paint0_linear_8_1430" x1="8" y1="20" x2="32" y2="20" gradientUnits="userSpaceOnUse">
<stop offset="0.485577" stop-color="#482CC7"/>
<stop offset="1" stop-color="#A805D0"/>
</linearGradient>
</defs>
</svg>
