<svg width="32" height="32" viewBox="0 0 32 32" fill="none" xmlns="http://www.w3.org/2000/svg">
<path d="M10.1867 13.8399C10.1867 14.1732 10.2134 14.4399 10.2801 14.6666C10.3467 14.8266 10.4401 15.0399 10.5601 15.2799C10.6134 15.3332 10.6267 15.4132 10.6267 15.4799C10.6267 15.5732 10.5734 15.6532 10.4534 15.7466L9.89341 16.1199C9.81341 16.1732 9.73341 16.1999 9.66675 16.1999C9.57341 16.1999 9.49341 16.1466 9.40008 16.0666C9.28008 15.9332 9.17341 15.7999 9.08008 15.6532C9.00008 15.5066 8.90675 15.3332 8.81341 15.1332C8.12008 15.9466 7.25341 16.3599 6.20008 16.3599C5.45341 16.3599 4.86675 16.1466 4.42675 15.7199C4.00008 15.2932 3.77341 14.7199 3.77341 13.9999C3.77341 13.2666 4.04008 12.6666 4.57341 12.1866C5.12008 11.7332 5.84008 11.4932 6.74675 11.4932C7.05341 11.4932 7.33341 11.5199 7.69341 11.5732C8.00008 11.6132 8.36008 11.6799 8.70675 11.7599V11.1199C8.70675 10.4399 8.57341 9.99989 8.29341 9.69322C8.00008 9.41322 7.53341 9.29322 6.85341 9.29322C6.53341 9.29322 6.21341 9.33322 5.89341 9.39989C5.56008 9.47989 5.24008 9.57322 4.93341 9.70656C4.78675 9.75989 4.66675 9.79989 4.62675 9.81322C4.56008 9.83989 4.52008 9.83989 4.48008 9.83989C4.36008 9.83989 4.29341 9.75989 4.29341 9.57322V9.13322C4.29341 8.99989 4.30675 8.89322 4.36008 8.82656C4.40008 8.75989 4.48008 8.70656 4.60008 8.66656C4.92008 8.47989 5.28008 8.34656 5.72008 8.23989C6.1727 8.12154 6.63892 8.06327 7.10675 8.06656C8.16008 8.06656 8.93341 8.30656 9.42675 8.78656C9.92008 9.26656 10.1601 9.99989 10.1601 10.9732V13.8399H10.1867ZM6.58675 15.1999C6.88008 15.1999 7.17341 15.1466 7.49341 15.0399C7.81341 14.9332 8.09341 14.7332 8.33341 14.4666C8.48008 14.2932 8.58675 14.1066 8.66675 13.8932C8.66675 13.6799 8.73341 13.4266 8.73341 13.1199V12.7599C8.46675 12.6666 8.20008 12.6666 7.90675 12.5999C7.63211 12.5699 7.35629 12.5521 7.08008 12.5466C6.48008 12.5466 6.05341 12.6666 5.76008 12.9066C5.46675 13.1466 5.33341 13.4799 5.33341 13.9199C5.33341 14.3466 5.42674 14.6666 5.65341 14.8666C5.86674 15.0932 6.17341 15.1999 6.58675 15.1999ZM13.7067 16.1466C13.5777 16.1504 13.4496 16.123 13.3334 16.0666C13.2934 15.9999 13.2267 15.8799 13.1734 15.7199L11.0934 8.86656C11.0401 8.66656 11.0134 8.57322 11.0134 8.50656C11.0134 8.35989 11.0801 8.27989 11.2267 8.27989H12.0934C12.2667 8.27989 12.3867 8.30656 12.4401 8.37322C12.5201 8.42656 12.5734 8.54656 12.6267 8.71989L14.1067 14.5866L15.4934 8.71989C15.5334 8.54656 15.5867 8.42656 15.6667 8.37322C15.7334 8.31989 15.8534 8.27989 16.0001 8.27989H16.7334C16.8934 8.27989 17.0134 8.30656 17.0801 8.37322C17.1467 8.42656 17.2134 8.54656 17.2534 8.71989L18.6667 14.6666L20.1867 8.71989C20.2401 8.54656 20.3067 8.42656 20.3601 8.37322C20.4401 8.31989 20.5467 8.27989 20.7067 8.27989H21.5334C21.6801 8.27989 21.7601 8.35989 21.7601 8.50656C21.7601 8.54656 21.7467 8.59989 21.7334 8.66656C21.7334 8.66656 21.7067 8.77322 21.6801 8.86656L19.5334 15.7199C19.4801 15.9066 19.4267 15.9999 19.3334 16.0666C19.2801 16.1199 19.1601 16.1599 19.0134 16.1599H18.2534C18.0801 16.1599 18.0001 16.1332 17.8934 16.0666C17.8038 15.9715 17.7476 15.8498 17.7334 15.7199L16.3601 9.99989L14.9867 15.7066C14.9467 15.8799 14.8934 15.9999 14.8267 16.0666C14.7167 16.1265 14.5919 16.1543 14.4667 16.1466H13.7067ZM25.1067 16.3866C24.6667 16.3866 24.1734 16.3332 23.7334 16.2266C23.2934 16.1199 22.9467 15.9999 22.7201 15.8799C22.6043 15.8242 22.507 15.7362 22.4401 15.6266C22.4039 15.5518 22.3856 15.4696 22.3867 15.3866V14.9332C22.3867 14.7466 22.4534 14.6666 22.5867 14.6666H22.7467C22.8001 14.6666 22.8801 14.7332 22.9734 14.7732C23.2667 14.9066 23.6001 15.0132 23.9467 15.0799C24.3067 15.1466 24.6667 15.1866 25.0001 15.1866C25.5601 15.1866 26.0001 15.0932 26.2934 14.8932C26.6001 14.6666 26.7601 14.4132 26.7601 14.0532C26.7601 13.7999 26.6667 13.5999 26.5201 13.4266C26.3601 13.2666 26.0534 13.1066 25.6267 12.9732L24.3334 12.5732C23.6934 12.3599 23.2134 12.0666 22.9201 11.6666C22.6338 11.2963 22.479 10.8412 22.4801 10.3732C22.4801 9.99989 22.5601 9.67989 22.7201 9.39989C22.8801 9.10656 23.0934 8.86656 23.3334 8.66656C23.6267 8.46656 23.9201 8.31989 24.2801 8.21322C24.6267 8.10656 25.0001 8.05322 25.4001 8.05322C25.5867 8.05322 25.7867 8.06656 26.0001 8.09322C26.1867 8.11989 26.3734 8.15989 26.5601 8.18656C26.7467 8.23989 26.9067 8.27989 27.0667 8.33322C27.2267 8.38656 27.3334 8.43989 27.4401 8.49322C27.5601 8.55989 27.6534 8.62656 27.7067 8.70656C27.7601 8.78656 27.7867 8.87989 27.7867 8.99989V9.42656C27.7867 9.61322 27.7201 9.70656 27.5867 9.70656C27.5201 9.70656 27.4001 9.66656 27.2401 9.59989C26.7467 9.37322 26.1734 9.25322 25.5467 9.25322C25.0401 9.25322 24.6667 9.33322 24.3601 9.50656C24.0934 9.66656 23.9467 9.93322 23.9467 10.2932C23.9467 10.5466 24.0401 10.7599 24.2134 10.9199C24.3867 11.0932 24.7201 11.2532 25.1867 11.4132L26.4534 11.8132C27.0934 11.9999 27.5467 12.2932 27.8267 12.6666C28.0934 13.0266 28.2267 13.4399 28.2267 13.9066C28.2267 14.2799 28.1467 14.6266 28.0001 14.9332C27.8401 15.2266 27.6267 15.4932 27.3334 15.7066C27.0801 15.9332 26.7467 16.0932 26.3734 16.2132C26.0001 16.3332 25.5467 16.3866 25.1067 16.3866ZM26.7734 20.7066C23.8534 22.8532 19.6134 23.9999 16.0001 23.9999C10.8667 23.9999 6.26675 22.1066 2.78675 18.9732C2.50675 18.7199 2.76008 18.3866 3.09341 18.5866C6.85341 20.7599 11.4801 22.0799 16.2801 22.0799C19.5201 22.0799 23.0801 21.4132 26.3467 19.9999C26.8401 19.7999 27.2534 20.3466 26.7734 20.7066ZM28.0001 19.3332C27.6134 18.8399 25.5201 19.0932 24.5734 19.1999C24.2934 19.2399 24.2534 18.9866 24.5067 18.7999C26.1734 17.6399 28.9201 17.9999 29.2267 18.3599C29.5467 18.7599 29.1467 21.5066 27.5867 22.8132C27.3334 23.0132 27.1067 22.9066 27.2134 22.6666C27.5734 21.7599 28.3601 19.7866 28.0001 19.3332Z" fill="#482CC7"/>
</svg>
