<svg width="43" height="40" viewBox="0 0 43 40" fill="none" xmlns="http://www.w3.org/2000/svg">
<rect width="42.0267" height="40" rx="20" fill="#F4F9FF"/>
<path d="M23.92 9.14838C24.1762 9.21684 24.3947 9.38424 24.5275 9.61377C24.6602 9.84331 24.6964 10.1162 24.628 10.3724L19.3307 30.1457C19.2619 30.4021 19.0941 30.6206 18.8642 30.7533C18.6342 30.8859 18.361 30.9218 18.1047 30.853C17.8483 30.7843 17.6297 30.6165 17.4971 30.3865C17.3644 30.1566 17.3286 29.8834 17.3973 29.627L22.696 9.85371C22.73 9.72684 22.7887 9.60792 22.8687 9.50373C22.9487 9.39955 23.0485 9.31215 23.1623 9.24653C23.2761 9.1809 23.4017 9.13834 23.5319 9.12127C23.6621 9.1042 23.7945 9.11296 23.9213 9.14704M26.9373 13.2177C27.1147 13.0206 27.3631 12.902 27.6279 12.888C27.8927 12.874 28.1522 12.9657 28.3493 13.143L30.6653 15.2284C31.648 16.111 32.4613 16.8444 33.0213 17.5084C33.608 18.2084 34.0267 18.959 34.0267 19.887C34.0267 20.8137 33.6093 21.5644 33.0213 22.263C32.4613 22.9284 31.648 23.6617 30.6653 24.5444L28.3493 26.6297C28.1522 26.8072 27.8926 26.8992 27.6277 26.8853C27.3627 26.8714 27.1142 26.7529 26.9367 26.5557C26.7591 26.3586 26.6672 26.099 26.6811 25.8341C26.695 25.5691 26.8135 25.3206 27.0107 25.143L29.2733 23.107C30.324 22.1617 31.032 21.5204 31.4907 20.9764C31.9307 20.4524 32.0267 20.147 32.0267 19.8857C32.0267 19.6244 31.9307 19.3204 31.4907 18.7964C31.032 18.251 30.324 17.6097 29.2733 16.6657L27.0107 14.6297C26.9129 14.5419 26.8334 14.4356 26.7767 14.317C26.72 14.1984 26.6872 14.0698 26.6803 13.9385C26.6734 13.8073 26.6924 13.6759 26.7363 13.552C26.7801 13.4281 26.848 13.314 26.936 13.2164M15.016 14.6297C15.2131 14.4522 15.3317 14.2036 15.3456 13.9387C15.3595 13.6738 15.2675 13.4142 15.09 13.217C14.9125 13.0199 14.6639 12.9013 14.399 12.8875C14.1341 12.8736 13.8745 12.9655 13.6773 13.143L11.3613 15.2284C10.3787 16.111 9.56533 16.8444 9.00533 17.5084C8.41867 18.2084 8 18.959 8 19.887C8 20.8137 8.41733 21.5644 9.00533 22.263C9.56533 22.9284 10.3787 23.6617 11.3613 24.5444L13.6773 26.6297C13.8745 26.8072 14.1341 26.8992 14.399 26.8853C14.6639 26.8714 14.9125 26.7529 15.09 26.5557C15.2675 26.3586 15.3595 26.099 15.3456 25.8341C15.3317 25.5691 15.2131 25.3206 15.016 25.143L12.7533 23.107C11.7027 22.1617 10.9947 21.5204 10.536 20.9764C10.096 20.4524 10 20.147 10 19.8857C10 19.6244 10.096 19.3204 10.536 18.7964C10.9947 18.251 11.7027 17.6097 12.7533 16.6657L15.016 14.6297Z" fill="url(#paint0_linear_8_1289)"/>
<defs>
<linearGradient id="paint0_linear_8_1289" x1="8" y1="20" x2="34.0267" y2="20" gradientUnits="userSpaceOnUse">
<stop offset="0.485577" stop-color="#482CC7"/>
<stop offset="1" stop-color="#A805D0"/>
</linearGradient>
</defs>
</svg>
