<svg width="40" height="40" viewBox="0 0 40 40" fill="none" xmlns="http://www.w3.org/2000/svg">
<rect width="40" height="40" rx="20" fill="#F4F9FF"/>
<path d="M20.4199 20.2933C21.1314 19.6775 21.702 18.9158 22.0931 18.06C22.4842 17.2042 22.6866 16.2742 22.6866 15.3333C22.6866 13.5652 21.9842 11.8695 20.734 10.6192C19.4837 9.36901 17.788 8.66663 16.0199 8.66663C14.2518 8.66663 12.5561 9.36901 11.3059 10.6192C10.0557 11.8695 9.35327 13.5652 9.35327 15.3333C9.35326 16.2742 9.55567 17.2042 9.94677 18.06C10.3379 18.9158 10.9085 19.6775 11.6199 20.2933C9.75346 21.1385 8.16989 22.5033 7.05858 24.2247C5.94727 25.946 5.35523 27.951 5.35327 30C5.35327 30.3536 5.49375 30.6927 5.7438 30.9428C5.99384 31.1928 6.33298 31.3333 6.6866 31.3333C7.04023 31.3333 7.37937 31.1928 7.62941 30.9428C7.87946 30.6927 8.01994 30.3536 8.01994 30C8.01994 27.8782 8.86279 25.8434 10.3631 24.3431C11.8634 22.8428 13.8982 22 16.0199 22C18.1417 22 20.1765 22.8428 21.6768 24.3431C23.1771 25.8434 24.0199 27.8782 24.0199 30C24.0199 30.3536 24.1604 30.6927 24.4105 30.9428C24.6605 31.1928 24.9997 31.3333 25.3533 31.3333C25.7069 31.3333 26.046 31.1928 26.2961 30.9428C26.5461 30.6927 26.6866 30.3536 26.6866 30C26.6846 27.951 26.0926 25.946 24.9813 24.2247C23.87 22.5033 22.2864 21.1385 20.4199 20.2933ZM16.0199 19.3333C15.2288 19.3333 14.4555 19.0987 13.7977 18.6592C13.1399 18.2196 12.6272 17.5949 12.3244 16.864C12.0217 16.1331 11.9425 15.3289 12.0968 14.5529C12.2511 13.777 12.6321 13.0643 13.1915 12.5049C13.7509 11.9455 14.4637 11.5645 15.2396 11.4102C16.0155 11.2558 16.8198 11.335 17.5507 11.6378C18.2816 11.9405 18.9063 12.4532 19.3458 13.111C19.7853 13.7688 20.0199 14.5422 20.0199 15.3333C20.0199 16.3942 19.5985 17.4116 18.8484 18.1617C18.0982 18.9119 17.0808 19.3333 16.0199 19.3333ZM29.0066 19.76C29.8599 18.7991 30.4173 17.612 30.6117 16.3417C30.8061 15.0715 30.6292 13.7721 30.1023 12.6C29.5754 11.4279 28.721 10.433 27.6419 9.73519C26.5628 9.03736 25.305 8.66628 24.0199 8.66663C23.6663 8.66663 23.3272 8.8071 23.0771 9.05715C22.8271 9.3072 22.6866 9.64634 22.6866 9.99996C22.6866 10.3536 22.8271 10.6927 23.0771 10.9428C23.3272 11.1928 23.6663 11.3333 24.0199 11.3333C25.0808 11.3333 26.0982 11.7547 26.8484 12.5049C27.5985 13.255 28.0199 14.2724 28.0199 15.3333C28.0181 16.0336 27.8323 16.7212 27.4814 17.3272C27.1304 17.9332 26.6264 18.4365 26.0199 18.7866C25.8223 18.9007 25.6572 19.0635 25.5404 19.2596C25.4237 19.4557 25.3593 19.6785 25.3533 19.9066C25.3477 20.133 25.3998 20.357 25.5048 20.5576C25.6098 20.7583 25.7641 20.9288 25.9533 21.0533L26.4733 21.4L26.6466 21.4933C28.2538 22.2556 29.6097 23.4613 30.5546 24.9684C31.4995 26.4755 31.994 28.2212 31.9799 30C31.9799 30.3536 32.1204 30.6927 32.3705 30.9428C32.6205 31.1928 32.9597 31.3333 33.3133 31.3333C33.6669 31.3333 34.006 31.1928 34.2561 30.9428C34.5061 30.6927 34.6466 30.3536 34.6466 30C34.6575 27.9539 34.145 25.939 33.1579 24.1467C32.1708 22.3545 30.7417 20.8444 29.0066 19.76Z" fill="url(#paint0_linear_8_1311)"/>
<defs>
<linearGradient id="paint0_linear_8_1311" x1="5.35327" y1="20" x2="34.6468" y2="20" gradientUnits="userSpaceOnUse">
<stop offset="0.485577" stop-color="#482CC7"/>
<stop offset="1" stop-color="#A805D0"/>
</linearGradient>
</defs>
</svg>
