<svg width="32" height="32" viewBox="0 0 32 32" fill="none" xmlns="http://www.w3.org/2000/svg">
<path d="M1.995 1.99402H25.515C26.7032 1.99402 27.8427 2.46602 28.6828 3.30618C29.523 4.14634 29.995 5.28585 29.995 6.47402V25.514C29.995 26.7022 29.523 27.8417 28.6828 28.6819C27.8427 29.522 26.7032 29.994 25.515 29.994H6.475C5.28683 29.994 4.14732 29.522 3.30716 28.6819C2.46699 27.8417 1.995 26.7022 1.995 25.514V1.99402Z" fill="#663399"/>
<path d="M9.07898 24.87V20.166C9.07898 18.29 10.283 17.282 12.103 17.282C13.895 17.254 15.015 18.43 14.959 20.418H12.887C12.943 19.662 12.607 19.102 12.047 19.13C11.347 19.13 11.151 19.606 11.151 20.502V24.59C11.151 25.458 11.431 25.878 12.047 25.906C12.691 25.906 12.943 25.262 12.887 24.534H14.959C15.071 26.578 13.783 27.782 11.963 27.754C10.199 27.754 9.07898 26.774 9.07898 24.87ZM15.715 24.534H17.647C17.675 25.43 17.955 25.99 18.571 25.99C19.187 25.99 19.411 25.626 19.411 24.786C19.411 24.086 19.103 23.694 18.347 23.33L17.619 22.994C16.331 22.378 15.799 21.622 15.799 20.11C15.799 18.43 16.863 17.254 18.599 17.254C20.335 17.254 21.259 18.458 21.287 20.418H19.411C19.411 19.606 19.243 19.046 18.627 19.046C18.067 19.046 17.787 19.326 17.787 20.026C17.787 20.726 18.039 21.006 18.711 21.286L19.383 21.594C20.811 22.266 21.427 23.134 21.427 24.758C21.427 26.69 20.335 27.754 18.543 27.754C16.751 27.754 15.743 26.522 15.715 24.534ZM22.043 24.534H24.003C24.003 25.43 24.311 25.99 24.899 25.99C25.487 25.99 25.739 25.626 25.739 24.786C25.739 24.086 25.459 23.694 24.675 23.33L23.947 22.994C22.659 22.378 22.155 21.622 22.155 20.11C22.155 18.43 23.191 17.254 24.955 17.254C26.719 17.254 27.587 18.458 27.643 20.418H25.767C25.739 19.606 25.571 19.046 24.955 19.046C24.395 19.046 24.143 19.326 24.143 20.026C24.143 20.726 24.367 21.006 25.039 21.286L25.739 21.594C27.139 22.266 27.755 23.134 27.755 24.758C27.755 26.69 26.663 27.754 24.871 27.754C23.079 27.754 22.071 26.522 22.043 24.534Z" fill="white"/>
</svg>
