<svg width="32" height="32" viewBox="0 0 32 32" fill="none" xmlns="http://www.w3.org/2000/svg">
<path d="M25.5146 1.99414C26.7028 1.99414 27.8425 2.46648 28.6826 3.30664C29.5227 4.14671 29.995 5.28563 29.9951 6.47363V25.5137C29.9951 26.7018 29.5228 27.8415 28.6826 28.6816C27.8425 29.5218 26.7028 29.9941 25.5146 29.9941H6.47559C5.28744 29.9941 4.14777 29.5218 3.30762 28.6816C2.46745 27.8415 1.99512 26.7018 1.99512 25.5137V1.99414H25.5146ZM12.1035 17.2822C10.2835 17.2822 9.07911 18.29 9.0791 20.166V24.8701C9.07914 26.774 10.199 27.7538 11.9629 27.7539C13.7828 27.7819 15.0709 26.5781 14.959 24.5342H12.8867C12.9427 25.2621 12.6908 25.9062 12.0469 25.9062C11.431 25.8782 11.1514 25.4577 11.1514 24.5898V20.502C11.1514 19.6061 11.3471 19.13 12.0469 19.1299C12.6069 19.1019 12.9427 19.662 12.8867 20.418H14.959C15.015 18.4302 13.8953 17.2544 12.1035 17.2822ZM18.5986 17.2539C16.8629 17.2541 15.7988 18.4305 15.7988 20.1104C15.7989 21.6221 16.3312 22.3782 17.6191 22.9941L18.3467 23.3301C19.1027 23.6941 19.4111 24.0861 19.4111 24.7861C19.4111 25.626 19.1871 25.9902 18.5713 25.9902C17.9553 25.9902 17.6755 25.4301 17.6475 24.5342H15.7148C15.7429 26.522 16.7511 27.7538 18.543 27.7539C20.335 27.7539 21.4268 26.6898 21.4268 24.7578C21.4267 23.134 20.8107 22.2657 19.3828 21.5938L18.7109 21.2861C18.0391 21.0062 17.7872 20.7261 17.7871 20.0264C17.7871 19.3264 18.0671 19.0459 18.627 19.0459C19.2429 19.0459 19.4111 19.606 19.4111 20.418H21.2871C21.2591 18.458 20.3346 17.2539 18.5986 17.2539ZM24.9551 17.2539C23.1911 17.2539 22.1553 18.4304 22.1553 20.1104C22.1553 21.6221 22.6594 22.3782 23.9473 22.9941L24.6748 23.3301C25.4588 23.6941 25.7393 24.0861 25.7393 24.7861C25.7392 25.6259 25.4872 25.9901 24.8994 25.9902C24.3114 25.9902 24.003 25.4301 24.0029 24.5342H22.043C22.071 26.5221 23.0791 27.7539 24.8711 27.7539C26.6631 27.7539 27.7549 26.6898 27.7549 24.7578C27.7548 23.134 27.1392 22.2657 25.7393 21.5938L25.0391 21.2861C24.3672 21.0062 24.1436 20.7261 24.1436 20.0264C24.1436 19.3264 24.3951 19.0459 24.9551 19.0459C25.5711 19.0459 25.7396 19.606 25.7676 20.418H27.6436C27.5875 18.458 26.7191 17.2539 24.9551 17.2539Z" fill="#482CC7"/>
</svg>
