<svg width="40" height="32" viewBox="0 0 40 32" fill="none" xmlns="http://www.w3.org/2000/svg">
<g clip-path="url(#clip0_60_2)">
<path d="M39.1706 12.1941C38.27 11.5022 36.2062 11.2427 34.5928 11.5887C34.4053 9.85894 33.5422 8.3456 32.0412 7.00506L31.1783 6.31317L30.5778 7.30776C29.8275 8.60506 29.4522 10.4213 29.5647 12.151C29.6022 12.7562 29.7898 13.8373 30.3527 14.7887C29.8275 15.1346 28.7393 15.567 27.3135 15.567H0.18454L0.109555 15.913C-0.153204 17.6426 -0.153204 23.0478 2.92368 27.199C5.25008 30.3555 8.7022 31.9555 13.2424 31.9555C23.0732 31.9555 30.3527 26.7231 33.7673 17.2534C35.1181 17.2966 38.0074 17.2534 39.4708 14.0101C39.5083 13.9236 39.5833 13.7507 39.8459 13.1022L39.9961 12.7562L39.1706 12.1941ZM21.8725 0H17.7452V4.32415H21.8725V0ZM21.8725 5.18902H17.7452V9.51317H21.8725V5.18902ZM16.9946 5.18902H12.8673V9.51317H16.9946V5.18902ZM12.1167 5.18902H7.98922V9.51317H12.1167V5.18902ZM7.23875 10.378H3.11129V14.7022H7.23859L7.23875 10.378ZM12.1167 10.378H7.98922V14.7022H12.1167V10.378ZM16.9946 10.378H12.8673V14.7022H16.9946V10.378ZM21.8727 10.378H17.7451V14.7022H21.8727V10.378ZM26.7506 10.378H22.623V14.7022H26.7506V10.378Z" fill="#482CC7"/>
</g>
<defs>
<clipPath id="clip0_60_2">
<rect width="40" height="32" fill="white"/>
</clipPath>
</defs>
</svg>
