<svg width="32" height="32" viewBox="0 0 32 32" fill="none" xmlns="http://www.w3.org/2000/svg">
<path d="M8.61324 15.8027C8.68942 15.6705 8.73855 15.5245 8.75778 15.3732C8.77702 15.2219 8.76596 15.0682 8.72527 14.9212C8.68457 14.7742 8.61504 14.6367 8.52073 14.5168C8.42642 14.3969 8.3092 14.2969 8.17591 14.2227C7.90468 14.0722 7.58514 14.0344 7.28627 14.1174C6.98741 14.2005 6.73321 14.3978 6.57857 14.6667L2.81991 21.224C2.74378 21.3563 2.69472 21.5024 2.67559 21.6538C2.65645 21.8052 2.66762 21.9588 2.70844 22.1059C2.74927 22.2529 2.81893 22.3904 2.91337 22.5102C3.00782 22.6301 3.12516 22.73 3.25857 22.804C3.52964 22.9547 3.84906 22.9927 4.14791 22.9099C4.44675 22.8271 4.70105 22.6301 4.85591 22.3614L8.61324 15.8027ZM16.7146 10.7747C16.7908 10.6425 16.8399 10.4965 16.8591 10.3452C16.8783 10.1939 16.8673 10.0402 16.8266 9.89318C16.7859 9.74615 16.7164 9.60868 16.6221 9.48877C16.5278 9.36886 16.4105 9.26891 16.2772 9.19471C16.0061 9.04366 15.6863 9.00541 15.3871 9.08825C15.088 9.17109 14.8334 9.36835 14.6786 9.63738L10.9212 16.196C10.8451 16.3282 10.7959 16.4742 10.7767 16.6256C10.7575 16.7769 10.7685 16.9306 10.8092 17.0776C10.8499 17.2246 10.9194 17.3621 11.0137 17.482C11.1081 17.6019 11.2253 17.7019 11.3586 17.776C11.6298 17.9271 11.9495 17.9653 12.2487 17.8825C12.5478 17.7997 12.8024 17.6024 12.9572 17.3334L16.7146 10.7747ZM29.1799 10.7747C29.256 10.6425 29.3051 10.4964 29.3242 10.345C29.3434 10.1936 29.3322 10.0399 29.2914 9.89287C29.2505 9.74584 29.1809 9.60839 29.0864 9.48853C28.992 9.36867 28.8747 9.26879 28.7412 9.19471C28.4702 9.04408 28.1508 9.00606 27.8519 9.08888C27.5531 9.1717 27.2988 9.36871 27.1439 9.63738L23.3852 16.196C23.3091 16.3283 23.2601 16.4744 23.2409 16.6258C23.2218 16.7772 23.233 16.9309 23.2738 17.0779C23.3146 17.2249 23.3843 17.3624 23.4787 17.4822C23.5732 17.6021 23.6905 17.702 23.8239 17.776C24.095 17.9267 24.4144 17.9647 24.7132 17.8819C25.0121 17.7991 25.2664 17.6021 25.4212 17.3334L29.1799 10.7747ZM21.0759 15.8027C21.1521 15.6705 21.2012 15.5245 21.2205 15.3732C21.2397 15.2219 21.2286 15.0682 21.1879 14.9212C21.1472 14.7742 21.0777 14.6367 20.9834 14.5168C20.8891 14.3969 20.7719 14.2969 20.6386 14.2227C20.3672 14.0718 20.0474 14.0337 19.7482 14.1168C19.449 14.1999 19.1946 14.3975 19.0399 14.6667L15.2826 21.224C15.2064 21.3562 15.1573 21.5022 15.138 21.6536C15.1188 21.8049 15.1298 21.9586 15.1705 22.1056C15.2112 22.2526 15.2808 22.3901 15.3751 22.51C15.4694 22.6299 15.5866 22.7299 15.7199 22.804C15.9911 22.9551 16.3108 22.9933 16.61 22.9105C16.9092 22.8277 17.1637 22.6304 17.3186 22.3614L21.0759 15.8027Z" fill="white"/>
</svg>
