<svg width="32" height="32" viewBox="0 0 32 32" fill="none" xmlns="http://www.w3.org/2000/svg">
<path d="M21.1466 5.85341V25.8534C21.1466 28.0801 22.6666 29.3334 24.3333 29.3334C25.8533 29.3334 27.52 28.2801 27.52 25.8534V6.00008C27.52 3.94675 26 2.66675 24.3333 2.66675C22.6666 2.66675 21.1466 4.08008 21.1466 5.85341ZM12.8133 16.0001V25.8534C12.8133 28.0934 14.36 29.3334 16 29.3334C17.52 29.3334 19.1866 28.2801 19.1866 25.8534V16.1467C19.1866 14.0934 17.6666 12.8134 16 12.8134C14.3333 12.8134 12.8133 14.2267 12.8133 16.0001ZM7.66665 22.9734C9.42665 22.9734 10.8533 24.4001 10.8533 26.1467C10.8533 26.9919 10.5176 27.8024 9.91996 28.4001C9.32235 28.9977 8.5118 29.3334 7.66665 29.3334C6.82149 29.3334 6.01095 28.9977 5.41333 28.4001C4.81572 27.8024 4.47998 26.9919 4.47998 26.1467C4.47998 24.4001 5.90665 22.9734 7.66665 22.9734Z" fill="#482CC7"/>
</svg>
