<svg width="40" height="40" viewBox="0 0 40 40" fill="none" xmlns="http://www.w3.org/2000/svg">
<rect width="40" height="40" rx="20" fill="#F4F9FF"/>
<path d="M20 32C16.6444 32 13.8058 31.4836 11.484 30.4507C9.16222 29.4178 8.00089 28.1564 8 26.6667V13.3333C8 11.8667 9.17244 10.6111 11.5173 9.56667C13.8622 8.52222 16.6898 8 20 8C23.3102 8 26.1382 8.52222 28.484 9.56667C30.8298 10.6111 32.0018 11.8667 32 13.3333V26.6667C32 28.1556 30.8387 29.4169 28.516 30.4507C26.1933 31.4844 23.3547 32.0009 20 32ZM20 16.0333C21.9778 16.0333 23.9667 15.7498 25.9667 15.1827C27.9667 14.6156 29.0889 14.0102 29.3333 13.3667C29.0889 12.7222 27.9724 12.1111 25.984 11.5333C23.9956 10.9556 22.0009 10.6667 20 10.6667C17.9778 10.6667 15.9947 10.9502 14.0507 11.5173C12.1067 12.0844 10.9787 12.7009 10.6667 13.3667C10.9778 14.0333 12.1058 14.6444 14.0507 15.2C15.9956 15.7556 17.9787 16.0333 20 16.0333ZM20 22.6667C20.9333 22.6667 21.8333 22.6222 22.7 22.5333C23.5667 22.4444 24.3947 22.3164 25.184 22.1493C25.9733 21.9822 26.7178 21.7769 27.4173 21.5333C28.1169 21.2898 28.7556 21.012 29.3333 20.7V16.7C28.7556 17.0111 28.1169 17.2889 27.4173 17.5333C26.7178 17.7778 25.9733 17.9836 25.184 18.1507C24.3947 18.3178 23.5667 18.4453 22.7 18.5333C21.8333 18.6213 20.9333 18.6658 20 18.6667C19.0667 18.6676 18.1556 18.6231 17.2667 18.5333C16.3778 18.4436 15.5387 18.3156 14.7493 18.1493C13.96 17.9831 13.2213 17.7778 12.5333 17.5333C11.8453 17.2889 11.2231 17.0111 10.6667 16.7V20.7C11.2222 21.0111 11.8444 21.2889 12.5333 21.5333C13.2222 21.7778 13.9613 21.9836 14.7507 22.1507C15.54 22.3178 16.3787 22.4453 17.2667 22.5333C18.1547 22.6213 19.0658 22.6658 20 22.6667ZM20 29.3333C21.0222 29.3333 22.0613 29.2556 23.1173 29.1C24.1733 28.9444 25.1453 28.7391 26.0333 28.484C26.9213 28.2289 27.6658 27.94 28.2667 27.6173C28.8676 27.2947 29.2231 26.9667 29.3333 26.6333V23.3667C28.7556 23.6778 28.1169 23.9556 27.4173 24.2C26.7178 24.4444 25.9733 24.6502 25.184 24.8173C24.3947 24.9844 23.5667 25.112 22.7 25.2C21.8333 25.288 20.9333 25.3324 20 25.3333C19.0667 25.3342 18.1556 25.2898 17.2667 25.2C16.3778 25.1102 15.5387 24.9822 14.7493 24.816C13.96 24.6498 13.2213 24.4444 12.5333 24.2C11.8453 23.9556 11.2231 23.6778 10.6667 23.3667V26.6667C10.7778 27 11.128 27.3222 11.7173 27.6333C12.3067 27.9444 13.0453 28.228 13.9333 28.484C14.8213 28.74 15.7991 28.9453 16.8667 29.1C17.9342 29.2547 18.9787 29.3324 20 29.3333Z" fill="url(#paint0_linear_8_1424)"/>
<defs>
<linearGradient id="paint0_linear_8_1424" x1="8" y1="20" x2="32" y2="20" gradientUnits="userSpaceOnUse">
<stop offset="0.485577" stop-color="#482CC7"/>
<stop offset="1" stop-color="#A805D0"/>
</linearGradient>
</defs>
</svg>
