<svg width="32" height="32" viewBox="0 0 32 32" fill="none" xmlns="http://www.w3.org/2000/svg">
<path d="M13.172 2.82801L11.78 4.22001L13.69 6.13001L15.69 8.13001C16.1455 7.90466 16.651 7.79931 17.1586 7.82393C17.6662 7.84855 18.1591 8.00231 18.5907 8.27067C19.0223 8.53903 19.3783 8.9131 19.6249 9.35747C19.8715 9.80184 20.0006 10.3018 20 10.81C19.9892 11.2635 19.8836 11.7098 19.69 12.12L21.75 14.12C22.2902 13.8079 22.9224 13.694 23.5376 13.7981C24.1528 13.9021 24.7124 14.2176 25.12 14.69C25.4047 14.9631 25.6299 15.2921 25.7814 15.6565C25.9328 16.0208 26.0072 16.4125 26 16.807C26.0006 17.5947 25.6934 18.3515 25.144 18.916C24.8675 19.2047 24.5343 19.4332 24.1654 19.5871C23.7964 19.7409 23.3997 19.8168 23 19.81C22.6046 19.8162 22.2121 19.7423 21.846 19.5928C21.4799 19.4433 21.1479 19.2212 20.87 18.94C20.399 18.5291 20.0856 17.9671 19.9835 17.3505C19.8813 16.7339 19.9967 16.1009 20.31 15.56L18.31 13.5C18.2089 13.5457 18.1054 13.5858 18 13.62V20C18.5805 20.2068 19.0833 20.5874 19.44 21.09C19.804 21.5896 20.0001 22.1918 20 22.81C20.0078 23.206 19.9339 23.5994 19.7828 23.9655C19.6318 24.3317 19.4068 24.6627 19.122 24.938C18.5774 25.4819 17.8435 25.794 17.074 25.809C16.5179 25.8264 15.9681 25.6878 15.4867 25.4089C15.0053 25.1301 14.6115 24.7221 14.3499 24.2311C14.0883 23.7401 13.9694 23.1856 14.0065 22.6305C14.0436 22.0754 14.2353 21.5418 14.56 21.09C14.9166 20.5874 15.4194 20.2068 16 20V13.62C15.4181 13.4156 14.9147 13.0345 14.56 12.53C14.1947 12.031 13.9985 11.4284 14 10.81C13.9991 10.3551 14.1053 9.90631 14.31 9.50001L10.41 5.60001L2.83097 13.172C2.4593 13.5434 2.16444 13.9844 1.96323 14.4697C1.76203 14.9551 1.65842 15.4754 1.65833 16.0008C1.65823 16.5262 1.76166 17.0465 1.96269 17.532C2.16373 18.0174 2.45843 18.4585 2.82997 18.83L13.172 29.172C13.9221 29.9219 14.9393 30.3432 16 30.3432C17.0606 30.3432 18.0779 29.9219 18.828 29.172L29.172 18.828C29.9219 18.0779 30.3431 17.0607 30.3431 16C30.3431 14.9393 29.9219 13.9221 29.172 13.172L18.828 2.82801C18.0779 2.07812 17.0606 1.65686 16 1.65686C14.9393 1.65686 13.9221 2.07812 13.172 2.82801Z" fill="#E64A19"/>
</svg>
