<svg width="32" height="32" viewBox="0 0 32 32" fill="none" xmlns="http://www.w3.org/2000/svg">
<path d="M13.1721 2.82801L11.7801 4.22001L13.6901 6.13001L15.6901 8.13001C16.1456 7.90466 16.6511 7.79931 17.1587 7.82393C17.6663 7.84854 18.1593 8.00231 18.5909 8.27067C19.0224 8.53903 19.3784 8.9131 19.625 9.35747C19.8716 9.80184 20.0007 10.3018 20.0001 10.81C19.9893 11.2635 19.8837 11.7098 19.6901 12.12L21.7501 14.12C22.2903 13.8079 22.9226 13.694 23.5378 13.7981C24.1529 13.9021 24.7126 14.2176 25.1201 14.69C25.4049 14.9631 25.6301 15.2921 25.7815 15.6565C25.9329 16.0208 26.0074 16.4125 26.0001 16.807C26.0007 17.5947 25.6936 18.3515 25.1441 18.916C24.8676 19.2047 24.5345 19.4332 24.1655 19.5871C23.7966 19.7409 23.3998 19.8168 23.0001 19.81C22.6047 19.8162 22.2122 19.7423 21.8461 19.5928C21.4801 19.4433 21.1481 19.2212 20.8701 18.94C20.3991 18.5291 20.0857 17.9671 19.9836 17.3505C19.8814 16.7339 19.9968 16.1009 20.3101 15.56L18.3101 13.5C18.2091 13.5457 18.1056 13.5858 18.0001 13.62V20C18.5807 20.2068 19.0834 20.5874 19.4401 21.09C19.8041 21.5896 20.0002 22.1918 20.0001 22.81C20.0079 23.206 19.934 23.5994 19.783 23.9655C19.6319 24.3317 19.4069 24.6627 19.1221 24.938C18.5775 25.4819 17.8436 25.794 17.0741 25.809C16.518 25.8264 15.9682 25.6878 15.4868 25.4089C15.0054 25.1301 14.6116 24.7221 14.35 24.2311C14.0885 23.7401 13.9695 23.1856 14.0066 22.6305C14.0437 22.0754 14.2355 21.5418 14.5601 21.09C14.9167 20.5874 15.4195 20.2068 16.0001 20V13.62C15.4183 13.4156 14.9148 13.0345 14.5601 12.53C14.1948 12.031 13.9986 11.4284 14.0001 10.81C13.9992 10.3551 14.1054 9.90631 14.3101 9.50001L10.4101 5.60001L2.83109 13.172C2.45942 13.5434 2.16456 13.9844 1.96335 14.4697C1.76215 14.9551 1.65854 15.4754 1.65845 16.0008C1.65835 16.5262 1.76178 17.0465 1.96281 17.532C2.16385 18.0174 2.45855 18.4585 2.83009 18.83L13.1721 29.172C13.9222 29.9219 14.9394 30.3432 16.0001 30.3432C17.0608 30.3432 18.078 29.9219 18.8281 29.172L29.1721 18.828C29.922 18.0779 30.3432 17.0607 30.3432 16C30.3432 14.9393 29.922 13.9221 29.1721 13.172L18.8281 2.82801C18.078 2.07812 17.0608 1.65686 16.0001 1.65686C14.9394 1.65686 13.9222 2.07812 13.1721 2.82801Z" fill="#482CC7"/>
</svg>
