<svg width="36" height="31" viewBox="0 0 36 31" fill="none" xmlns="http://www.w3.org/2000/svg">
<path d="M33.084 7.96355C33.372 7.20076 34.308 4.16864 32.778 0.0686108C32.778 0.0686108 30.42 -0.675115 25.038 3.13887C22.788 2.50956 20.394 2.41421 18 2.41421C15.624 2.41421 13.212 2.50956 10.962 3.13887C5.58 -0.732325 3.222 0.0686108 3.222 0.0686108C1.692 4.16864 2.628 7.20076 2.934 7.96355C1.098 10.0422 0 12.6738 0 15.9538C0 28.2349 7.488 31 18 31C28.422 31 36 28.2349 36 15.9538C36 12.6738 34.902 10.0422 33.084 7.96355ZM18 28.6544C10.584 28.6544 4.554 28.2921 4.554 20.6641C4.554 18.8525 5.4 17.1362 6.84 15.7441C9.252 13.3985 13.374 14.638 18 14.638C22.662 14.638 26.73 13.3985 29.16 15.7441C30.6 17.1362 31.5 18.8334 31.5 20.6641C31.5 28.273 25.434 28.6544 18 28.6544ZM12.348 16.7166C10.872 16.7166 9.648 18.6236 9.648 20.9502C9.648 23.2958 10.872 25.2218 12.348 25.2218C13.842 25.2218 15.048 23.3148 15.048 20.9502C15.048 18.6046 13.842 16.7166 12.348 16.7166ZM23.652 16.7166C22.158 16.7166 20.952 18.6046 20.952 20.9502C20.952 23.3148 22.158 25.2218 23.652 25.2218C25.128 25.2218 26.352 23.3148 26.352 20.9502C26.352 18.6046 25.2 16.7166 23.652 16.7166Z" fill="#F4F9FF"/>
</svg>
