<svg width="20" height="20" viewBox="0 0 20 20" fill="none" xmlns="http://www.w3.org/2000/svg">
<path d="M16.9833 7.1084C17.1166 6.77507 17.55 5.45007 16.8416 3.6584C16.8416 3.6584 15.75 3.3334 13.2583 5.00007C12.2166 4.72507 11.1083 4.6834 9.99996 4.6834C8.89996 4.6834 7.78329 4.72507 6.74163 5.00007C4.24996 3.3084 3.15829 3.6584 3.15829 3.6584C2.44996 5.45007 2.88329 6.77507 3.02496 7.1084C2.17496 8.01673 1.66663 9.16673 1.66663 10.6001C1.66663 15.9667 5.13329 17.1751 9.99996 17.1751C14.825 17.1751 18.3333 15.9667 18.3333 10.6001C18.3333 9.16673 17.825 8.01673 16.9833 7.1084ZM9.99996 16.1501C6.56663 16.1501 3.77496 15.9917 3.77496 12.6584C3.77496 11.8667 4.16663 11.1167 4.83329 10.5084C5.94996 9.4834 7.85829 10.0251 9.99996 10.0251C12.1583 10.0251 14.0416 9.4834 15.1666 10.5084C15.8333 11.1167 16.25 11.8584 16.25 12.6584C16.25 15.9834 13.4416 16.1501 9.99996 16.1501ZM7.38329 10.9334C6.69996 10.9334 6.13329 11.7667 6.13329 12.7834C6.13329 13.8084 6.69996 14.6501 7.38329 14.6501C8.07496 14.6501 8.63329 13.8167 8.63329 12.7834C8.63329 11.7584 8.07496 10.9334 7.38329 10.9334ZM12.6166 10.9334C11.925 10.9334 11.3666 11.7584 11.3666 12.7834C11.3666 13.8167 11.925 14.6501 12.6166 14.6501C13.3 14.6501 13.8666 13.8167 13.8666 12.7834C13.8666 11.7584 13.3333 10.9334 12.6166 10.9334Z" fill="white"/>
</svg>
