<svg width="32" height="32" viewBox="0 0 32 32" fill="none" xmlns="http://www.w3.org/2000/svg">
<path d="M4.75931 28.469L2.25806 0.415283H29.7421L27.2381 28.4648L15.9833 31.5848L4.75931 28.469Z" fill="#E44D26"/>
<path d="M16 29.2L25.0945 26.6785L27.2342 2.70898H16V29.2Z" fill="#F16529"/>
<path d="M15.9999 13.1138H11.4469L11.1324 9.59028H15.9999V6.14978H7.37219L7.45469 7.07278L8.30019 16.5545H15.9999V13.1138ZM15.9999 22.0495L15.9847 22.0538L12.1529 21.0188L11.9082 18.275H8.45394L8.93594 23.6773L15.9842 25.6338L15.9999 25.6295V22.0495Z" fill="#EBEBEB"/>
<path d="M15.988 13.1138V16.5545H20.2248L19.8255 21.0168L15.988 22.0525V25.6323L23.0418 23.6773L23.0935 23.096L23.902 14.0378L23.9858 13.1138H23.0588H15.988ZM15.988 6.14978V9.59028H24.299L24.368 8.81728L24.525 7.07278L24.6073 6.14978H15.988Z" fill="white"/>
</svg>
