<svg width="32" height="32" viewBox="0 0 32 32" fill="none" xmlns="http://www.w3.org/2000/svg">
<path d="M26.6666 14.6666H30.6666V17.3333H26.6666V14.6666ZM1.33325 14.6666H5.33325V17.3333H1.33325V14.6666ZM17.3333 1.33325V5.33325H14.6666V1.33325H17.3333ZM6.55992 4.66659L9.39992 7.51992L7.50659 9.39992L4.66659 6.57325L6.55992 4.66659ZM22.5999 7.50659L25.4266 4.66659L27.3333 6.57325L24.4933 9.39992L22.5999 7.50659ZM15.9999 7.99992C18.1217 7.99992 20.1565 8.84277 21.6568 10.3431C23.1571 11.8434 23.9999 13.8782 23.9999 15.9999C23.9999 18.9599 22.3866 21.5466 19.9999 22.9333V25.3333C19.9999 25.6869 19.8594 26.026 19.6094 26.2761C19.3593 26.5261 19.0202 26.6666 18.6666 26.6666H13.3333C12.9796 26.6666 12.6405 26.5261 12.3904 26.2761C12.1404 26.026 11.9999 25.6869 11.9999 25.3333V22.9333C9.61325 21.5466 7.99992 18.9599 7.99992 15.9999C7.99992 13.8782 8.84277 11.8434 10.3431 10.3431C11.8434 8.84277 13.8782 7.99992 15.9999 7.99992ZM18.6666 27.9999V29.3333C18.6666 29.6869 18.5261 30.026 18.2761 30.2761C18.026 30.5261 17.6869 30.6666 17.3333 30.6666H14.6666C14.313 30.6666 13.9738 30.5261 13.7238 30.2761C13.4737 30.026 13.3333 29.6869 13.3333 29.3333V27.9999H18.6666ZM14.6666 23.9999H17.3333V21.1599C19.6399 20.5733 21.3333 18.4799 21.3333 15.9999C21.3333 14.5854 20.7713 13.2289 19.7712 12.2287C18.771 11.2285 17.4144 10.6666 15.9999 10.6666C14.5854 10.6666 13.2289 11.2285 12.2287 12.2287C11.2285 13.2289 10.6666 14.5854 10.6666 15.9999C10.6666 18.4799 12.3599 20.5733 14.6666 21.1599V23.9999Z" fill="#482CC7"/>
</svg>
