<svg width="32" height="32" viewBox="0 0 32 32" fill="none" xmlns="http://www.w3.org/2000/svg">
<g clip-path="url(#clip0_49_7)">
<path d="M24.5 0C28.6421 0 32 3.35786 32 7.5V24.5C32 28.6421 28.6421 32 24.5 32H7.5C3.35786 32 0 28.6421 0 24.5V7.5C0 3.35786 3.35786 0 7.5 0H24.5ZM14.4072 14.6914V24.916C14.4072 26.4194 13.784 26.8056 12.7959 26.8057C11.765 26.8057 11.3348 26.0974 10.8623 25.2598L8.41406 26.7412C9.12294 28.2448 10.5192 29.4912 12.9248 29.4912C15.5885 29.4912 17.4141 28.0726 17.4141 24.958V14.6914H14.4072ZM24.3535 14.5195C21.6684 14.5195 19.9492 16.2377 19.9492 18.4932C19.9492 20.9419 21.389 22.1019 23.5586 23.0254L24.3105 23.3477C25.6851 23.9488 26.501 24.3148 26.501 25.3457C26.5007 26.2047 25.7059 26.8271 24.46 26.8271C22.9784 26.827 22.1406 26.0544 21.4961 25.002L19.0479 26.4189C19.9285 28.1589 21.733 29.4912 24.5254 29.4912C27.3819 29.4911 29.5086 28.0091 29.5088 25.3027C29.5088 22.7896 28.0688 21.6728 25.5127 20.5771L24.7607 20.2549C23.4722 19.6963 22.9141 19.3307 22.9141 18.4287C22.9141 17.6985 23.4728 17.1396 24.3535 17.1396C25.2126 17.1397 25.7706 17.5052 26.2861 18.4287L28.6279 16.9248C27.64 15.1851 26.2651 14.5196 24.3535 14.5195Z" fill="#482CC7"/>
</g>
<defs>
<clipPath id="clip0_49_7">
<rect width="32" height="32" fill="white"/>
</clipPath>
</defs>
</svg>
