<svg width="32" height="31" viewBox="0 0 32 31" fill="none" xmlns="http://www.w3.org/2000/svg">
<path d="M29.7632 0H2.33335C1.03705 0 0 1 0 2.25V28.75C0 29.95 1.03705 31 2.33335 31H29.6595C30.9558 31 31.9928 30 31.9928 28.75V2.2C32.0965 1 31.0595 0 29.7632 0ZM9.48896 26.35H4.77041V11.6H9.48896V26.35ZM7.10376 9.55C5.54819 9.55 4.35559 8.35 4.35559 6.9C4.35559 5.45 5.60004 4.25 7.10376 4.25C8.60748 4.25 9.85193 5.45 9.85193 6.9C9.85193 8.35 8.71118 9.55 7.10376 9.55ZM27.378 26.35H22.6594V19.2C22.6594 17.5 22.6076 15.25 20.1705 15.25C17.6816 15.25 17.3187 17.15 17.3187 19.05V26.35H12.6001V11.6H17.215V13.65H17.2668C17.9409 12.45 19.4446 11.25 21.778 11.25C26.6002 11.25 27.4817 14.25 27.4817 18.35V26.35H27.378Z" fill="url(#paint0_linear_8_1275)"/>
<defs>
<linearGradient id="paint0_linear_8_1275" x1="0" y1="15.5" x2="32" y2="15.5" gradientUnits="userSpaceOnUse">
<stop offset="0.485577" stop-color="#482CC7"/>
<stop offset="1" stop-color="#A805D0"/>
</linearGradient>
</defs>
</svg>
