<svg width="32" height="32" viewBox="0 0 32 32" fill="none" xmlns="http://www.w3.org/2000/svg">
<path d="M29.3334 29.3334L24.0001 24.0001H10.6667C9.93341 24.0001 9.30586 23.7392 8.78408 23.2174C8.2623 22.6956 8.00097 22.0676 8.00008 21.3334V20.0001H22.6667C23.4001 20.0001 24.0281 19.7392 24.5507 19.2174C25.0734 18.6956 25.3343 18.0676 25.3334 17.3334V8.00008H26.6667C27.4001 8.00008 28.0281 8.26141 28.5507 8.78408C29.0734 9.30675 29.3343 9.9343 29.3334 10.6667V29.3334ZM5.33341 16.2334L6.90008 14.6667H20.0001V5.33341H5.33341V16.2334ZM2.66675 22.6667V5.33341C2.66675 4.60008 2.92808 3.97253 3.45075 3.45075C3.97341 2.92897 4.60097 2.66764 5.33341 2.66675H20.0001C20.7334 2.66675 21.3614 2.92808 21.8841 3.45075C22.4067 3.97341 22.6676 4.60097 22.6667 5.33341V14.6667C22.6667 15.4001 22.4059 16.0281 21.8841 16.5507C21.3623 17.0734 20.7343 17.3343 20.0001 17.3334H8.00008L2.66675 22.6667Z" fill="#482CC7"/>
</svg>
