<svg width="32" height="32" viewBox="0 0 32 32" fill="none" xmlns="http://www.w3.org/2000/svg">
<path d="M17.6001 24.8879H27.4667C27.7814 24.8879 28.0827 24.7773 28.3561 24.6213C28.6281 24.4653 28.9094 24.2693 29.0667 23.9999C29.2241 23.7293 29.3334 23.4226 29.3334 23.1106C29.3334 22.7986 29.2241 22.4919 29.0667 22.2213L22.4001 10.7546C22.2547 10.4934 22.0389 10.2781 21.7774 10.1333C21.4778 9.96719 21.1425 9.87572 20.8001 9.8666C20.4854 9.8666 20.1841 9.97726 19.9107 10.1333C19.6497 10.2783 19.4345 10.4936 19.2894 10.7546L17.6001 13.6879L14.2227 7.99993C14.0654 7.72926 13.8734 7.44393 13.6001 7.28793C13.3267 7.13193 13.0267 7.1106 12.7107 7.1106C12.3961 7.1106 12.0947 7.13193 11.8227 7.28793C11.5507 7.44393 11.2681 7.72793 11.1107 7.99993L2.84408 22.2213C2.68675 22.4919 2.66675 22.7986 2.66675 23.1106C2.66675 23.4226 2.68675 23.7293 2.84408 23.9999C3.00141 24.2693 3.28408 24.4666 3.55608 24.6213C3.82808 24.7759 4.12941 24.8879 4.44408 24.8879H10.6667C13.1334 24.8879 14.9267 23.7813 16.1774 21.6879L19.2001 16.4439L20.8001 13.6879L25.6894 22.0439H19.2001L17.6001 24.8879ZM10.5774 22.0439H6.22275L12.7107 10.8439L16.0001 16.4439L13.8214 20.2413C12.9907 21.6013 12.0441 22.0439 10.5774 22.0439Z" fill="white"/>
</svg>
