<svg width="32" height="32" viewBox="0 0 32 32" fill="none" xmlns="http://www.w3.org/2000/svg">
<path d="M17.7079 25H28.1169C28.4469 25 28.7719 24.912 29.0589 24.746C29.3454 24.5781 29.583 24.3382 29.7479 24.0499C29.9137 23.7608 30.0009 23.4333 30.0009 23.1C30.0009 22.7666 29.9137 22.4391 29.7479 22.15L22.7559 9.93595C22.5933 9.64644 22.3566 9.40544 22.07 9.23771C21.7835 9.06998 21.4574 8.98158 21.1254 8.98158C20.7934 8.98158 20.4673 9.06998 20.1807 9.23771C19.8942 9.40544 19.6575 9.64644 19.4949 9.93595L17.7069 13.061L14.2129 6.94995C14.0502 6.66046 13.8133 6.4195 13.5267 6.25181C13.2401 6.08411 12.914 5.99573 12.5819 5.99573C12.2498 5.99573 11.9237 6.08411 11.6371 6.25181C11.3504 6.4195 11.1136 6.66046 10.9509 6.94995L2.25089 22.15C2.00129 22.5863 1.93375 23.1034 2.06292 23.5892C2.19209 24.0749 2.50755 24.4902 2.94089 24.745C3.22689 24.912 3.55089 25 3.88189 25H10.4159C13.0049 25 14.9139 23.853 16.2269 21.615L19.4169 16.0429L21.1249 13.061L26.2519 22.018H19.4169L17.7079 25ZM10.3099 22.0149L5.74989 22.014L12.5859 10.0719L15.9959 16.042L13.7129 20.034C12.8399 21.486 11.8489 22.0149 10.3099 22.0149Z" fill="#482CC7"/>
</svg>
