<svg width="20" height="20" viewBox="0 0 20 20" fill="none" xmlns="http://www.w3.org/2000/svg">
<path d="M4.68004 16.6666C4.29615 16.6666 3.97587 16.5383 3.71921 16.2816C3.46254 16.0249 3.33393 15.7044 3.33337 15.3199V4.67992C3.33337 4.29603 3.46198 3.97575 3.71921 3.71909C3.97643 3.46242 4.29671 3.33381 4.68004 3.33325H9.35921V4.16659H4.68004C4.55171 4.16659 4.43393 4.21992 4.32671 4.32659C4.21949 4.43325 4.16615 4.55103 4.16671 4.67992V15.3208C4.16671 15.4485 4.22004 15.566 4.32671 15.6733C4.43337 15.7805 4.55087 15.8338 4.67921 15.8333H15.3209C15.4487 15.8333 15.5662 15.7799 15.6734 15.6733C15.7806 15.5666 15.8339 15.4491 15.8334 15.3208V10.6408H16.6667V15.3208C16.6667 15.7041 16.5384 16.0241 16.2817 16.2808C16.025 16.5374 15.7045 16.666 15.32 16.6666H4.68004ZM8.11587 12.4749L7.52587 11.8841L15.2434 4.16659H11.6667V3.33325H16.6667V8.33325H15.8334V4.75659L8.11587 12.4749Z" fill="#6800F9"/>
</svg>
