<svg width="32" height="32" viewBox="0 0 32 32" fill="none" xmlns="http://www.w3.org/2000/svg">
<g clip-path="url(#clip0_60_11)">
<path d="M17.7027 0.00278505C17.5974 -0.0105483 17.4454 0.0347851 17.2894 0.122785C17.0905 0.240615 16.905 0.379649 16.736 0.537452C16.3347 0.902785 15.8694 1.44412 15.4227 2.10545C14.5267 3.42545 13.676 5.24678 13.4427 7.15212C13.2827 8.45478 13.2374 9.61745 13.344 10.5895C14.1817 10.293 15.0635 10.1406 15.952 10.1388C17.1814 10.1388 18.3574 10.4295 19.4427 10.9561C19.7054 10.1068 19.896 9.09612 20.036 7.96145C20.2694 6.05612 19.9027 4.08545 19.3707 2.59079C19.1514 1.9472 18.8592 1.33077 18.5 0.753452C18.3778 0.559808 18.2342 0.380467 18.072 0.218785C17.9427 0.0961184 17.8067 0.0147851 17.7027 0.00278505ZM8.62271 3.95612C8.48323 3.97348 8.35079 4.02729 8.23871 4.11212L8.22138 4.12679C8.11322 4.25411 8.03284 4.40261 7.98538 4.56278C7.91738 4.76278 7.86005 5.02145 7.81738 5.31612C7.72504 6.03989 7.70539 6.77109 7.75871 7.49879C7.86538 9.12812 8.28805 11.0521 9.19738 12.5241C9.32271 12.7232 9.45338 12.9197 9.58938 13.1135C10.5574 12.0788 11.6787 11.2668 12.9067 10.7561C12.7734 9.70279 12.8267 8.47079 12.9947 7.09745C13.0454 6.68412 13.128 6.27612 13.2294 5.87612C12.5565 5.2822 11.7954 4.79641 10.9734 4.43612C10.427 4.19031 9.84747 4.0259 9.25338 3.94812C9.04328 3.92291 8.83211 3.9256 8.62271 3.95612ZM24.2907 6.34145C23.9839 6.34701 23.6778 6.37374 23.3747 6.42145C22.3715 6.57583 21.4067 6.91972 20.532 7.43479C20.5214 7.62941 20.5054 7.8237 20.484 8.01745C20.3374 9.20145 20.14 10.2628 19.8507 11.1695C20.9814 11.7935 22.0027 12.6761 22.8734 13.7561C23.9707 12.6228 24.78 11.0228 25.256 9.58278C25.5054 8.82278 25.6614 8.11612 25.7227 7.56412C25.752 7.28812 25.7587 7.05745 25.7454 6.88412C25.732 6.70679 25.6894 6.60945 25.692 6.61479C25.6472 6.57441 25.5958 6.54195 25.54 6.51879C25.3799 6.45288 25.2118 6.40806 25.04 6.38545C24.7919 6.3501 24.5413 6.33538 24.2907 6.34145ZM15.952 10.5268C13.2667 10.5268 10.8454 11.9761 9.08938 14.3055C7.33471 16.6361 6.24805 19.8521 6.24805 23.3815C6.24805 26.9148 7.32271 29.0588 9.08938 30.3388C10.8427 31.6095 13.28 32.0001 15.952 32.0001C18.624 32.0001 21.06 31.6095 22.8147 30.3388C24.5827 29.0588 25.6587 26.9148 25.6587 23.3815C25.6587 19.8521 24.5707 16.6361 22.8147 14.3068C21.0587 11.9761 18.636 10.5268 15.952 10.5268ZM11.556 17.4721C11.9646 17.4866 12.3545 17.647 12.6549 17.9243C12.9553 18.2016 13.1464 18.5774 13.1935 18.9835C13.2406 19.3896 13.1405 19.7991 12.9116 20.1378C12.6826 20.4765 12.3398 20.7219 11.9454 20.8295C12.0987 20.9548 12.1814 21.0975 12.164 21.2388C12.1214 21.5921 11.4694 21.8041 10.7107 21.7108C9.94938 21.6175 9.36805 21.2548 9.41205 20.9015C9.44405 20.6375 9.81471 20.4535 10.316 20.4161C10.0656 20.1768 9.89386 19.867 9.82346 19.5279C9.75305 19.1887 9.78735 18.8362 9.92181 18.5169C10.0563 18.1977 10.2845 17.9269 10.5764 17.7403C10.8682 17.5537 11.2099 17.4602 11.556 17.4721ZM19.9347 17.7655C20.287 17.7787 20.6267 17.9005 20.907 18.1143C21.1874 18.3281 21.3948 18.6234 21.5008 18.9597C21.6068 19.2959 21.6063 19.6568 21.4992 19.9927C21.3921 20.3286 21.1838 20.6232 20.9027 20.8361C21.4854 20.9135 21.912 21.1615 21.912 21.4575C21.912 21.8135 21.2907 22.1015 20.5254 22.1015C19.76 22.1015 19.1387 21.8135 19.1387 21.4575C19.1387 21.3268 19.2227 21.2055 19.3654 21.1041C18.9703 20.9808 18.6333 20.7184 18.4171 20.3655C18.2009 20.0125 18.12 19.5932 18.1896 19.1852C18.2591 18.7772 18.4743 18.4083 18.7953 18.1469C19.1162 17.8856 19.5211 17.7496 19.9347 17.7641V17.7655ZM11.5107 18.0521C11.3667 18.0546 11.2246 18.0854 11.0925 18.1427C10.9603 18.2001 10.8408 18.283 10.7407 18.3865C10.5386 18.5957 10.4278 18.8766 10.4327 19.1675C10.4352 19.3115 10.466 19.4536 10.5233 19.5857C10.5807 19.7178 10.6636 19.8373 10.7671 19.9374C10.8707 20.0375 10.993 20.1163 11.127 20.1691C11.2609 20.222 11.404 20.2479 11.548 20.2455C11.8389 20.2405 12.1159 20.1202 12.318 19.911C12.5202 19.7019 12.631 19.421 12.626 19.1301C12.6211 18.8393 12.5008 18.5623 12.2916 18.3601C12.0825 18.158 11.8016 18.0472 11.5107 18.0521ZM19.8894 18.3455C19.7455 18.3478 19.6034 18.3785 19.4713 18.4358C19.3393 18.493 19.2198 18.5757 19.1197 18.6792C19.0196 18.7826 18.9408 18.9048 18.8879 19.0387C18.835 19.1725 18.809 19.3155 18.8114 19.4595C18.8137 19.6034 18.8444 19.7454 18.9017 19.8775C18.959 20.0096 19.0417 20.1291 19.1451 20.2292C19.2486 20.3293 19.3707 20.408 19.5046 20.4609C19.6385 20.5138 19.7815 20.5398 19.9254 20.5375C20.2161 20.5327 20.4929 20.4126 20.6951 20.2037C20.8973 19.9948 21.0082 19.7141 21.0034 19.4235C20.9986 19.1328 20.8786 18.8559 20.6696 18.6537C20.4607 18.4516 20.1801 18.3407 19.8894 18.3455ZM11.1654 18.4908C11.2246 18.4928 11.2829 18.5065 11.3369 18.531C11.3909 18.5556 11.4395 18.5905 11.48 18.6338C11.5205 18.6772 11.5521 18.728 11.5729 18.7836C11.5937 18.8391 11.6034 18.8982 11.6014 18.9575C11.5994 19.0167 11.5857 19.075 11.5612 19.129C11.5366 19.183 11.5017 19.2316 11.4583 19.2721C11.415 19.3126 11.3641 19.3441 11.3086 19.365C11.2531 19.3858 11.194 19.3955 11.1347 19.3935C11.015 19.3894 10.9018 19.3379 10.8201 19.2504C10.7383 19.1629 10.6946 19.0465 10.6987 18.9268C10.7028 18.8071 10.7542 18.6939 10.8417 18.6121C10.9293 18.5304 11.0457 18.4867 11.1654 18.4908ZM19.544 18.7841C19.6628 18.7873 19.7756 18.8371 19.858 18.9228C19.9403 19.0085 19.9856 19.1231 19.984 19.242C19.9824 19.3608 19.9341 19.4742 19.8495 19.5577C19.7649 19.6412 19.6509 19.688 19.532 19.688C19.4132 19.688 19.2992 19.6412 19.2146 19.5577C19.13 19.4742 19.0817 19.3608 19.0801 19.242C19.0785 19.1231 19.1238 19.0085 19.2061 18.9228C19.2885 18.8371 19.4013 18.7873 19.52 18.7841H19.544ZM14.3307 20.3561C14.5574 20.6921 14.9067 20.8948 15.408 20.9521C15.904 21.0095 16.3334 20.8855 16.7094 20.5788C16.7292 20.5628 16.7519 20.5508 16.7763 20.5436C16.8007 20.5363 16.8263 20.534 16.8517 20.5366C16.877 20.5393 16.9015 20.5469 16.9239 20.5591C16.9463 20.5712 16.966 20.5877 16.982 20.6075C16.9981 20.6272 17.01 20.65 17.0173 20.6744C17.0245 20.6988 17.0268 20.7244 17.0242 20.7497C17.0215 20.775 17.0139 20.7996 17.0018 20.822C16.9896 20.8443 16.9732 20.8641 16.9534 20.8801C16.4947 21.2535 15.96 21.4055 15.364 21.3375C14.7707 21.2695 14.3107 21.0175 14.0094 20.5721C13.9935 20.5512 13.982 20.5272 13.9757 20.5017C13.9694 20.4762 13.9684 20.4496 13.9727 20.4237C13.977 20.3978 13.9865 20.373 14.0007 20.3509C14.0149 20.3287 14.0335 20.3097 14.0552 20.295C14.077 20.2803 14.1016 20.2702 14.1274 20.2653C14.1533 20.2604 14.1798 20.2609 14.2055 20.2666C14.2311 20.2723 14.2553 20.2832 14.2766 20.2986C14.298 20.314 14.3159 20.3336 14.3294 20.3561H14.3307Z" fill="#482CC7"/>
</g>
<defs>
<clipPath id="clip0_60_11">
<rect width="32" height="32" fill="white"/>
</clipPath>
</defs>
</svg>
