<svg width="32" height="32" viewBox="0 0 32 32" fill="none" xmlns="http://www.w3.org/2000/svg">
<path d="M25.3333 3.99992H19.76C19.2 2.45325 17.7333 1.33325 16 1.33325C14.2667 1.33325 12.8 2.45325 12.24 3.99992H6.66667C5.95942 3.99992 5.28115 4.28087 4.78105 4.78097C4.28095 5.28106 4 5.95934 4 6.66659V25.3333C4 26.0405 4.28095 26.7188 4.78105 27.2189C5.28115 27.719 5.95942 27.9999 6.66667 27.9999H25.3333C26.0406 27.9999 26.7189 27.719 27.219 27.2189C27.719 26.7188 28 26.0405 28 25.3333V6.66659C28 5.95934 27.719 5.28106 27.219 4.78097C26.7189 4.28087 26.0406 3.99992 25.3333 3.99992ZM16 3.99992C16.3536 3.99992 16.6928 4.14039 16.9428 4.39044C17.1929 4.64049 17.3333 4.97963 17.3333 5.33325C17.3333 5.68687 17.1929 6.02601 16.9428 6.27606C16.6928 6.52611 16.3536 6.66659 16 6.66659C15.6464 6.66659 15.3072 6.52611 15.0572 6.27606C14.8071 6.02601 14.6667 5.68687 14.6667 5.33325C14.6667 4.97963 14.8071 4.64049 15.0572 4.39044C15.3072 4.14039 15.6464 3.99992 16 3.99992ZM9.33333 9.33325H22.6667V6.66659H25.3333V25.3333H6.66667V6.66659H9.33333V9.33325ZM10 17.9999L12 15.9999L14.6667 18.6666L20.6667 12.6666L22.6667 14.6666L14.6667 22.6666L10 17.9999Z" fill="#482CC7"/>
</svg>
