<svg width="32" height="32" viewBox="0 0 32 32" fill="none" xmlns="http://www.w3.org/2000/svg">
<path d="M28.0333 14.7333V25.3333C28.0333 26.0667 27.7724 26.6947 27.2506 27.2173C26.7288 27.74 26.1008 28.0009 25.3666 28H6.69994C5.96661 28 5.33905 27.7391 4.81728 27.2173C4.2955 26.6956 4.03416 26.0676 4.03328 25.3333V14.7333C3.52216 14.2667 3.12794 13.6667 2.85061 12.9333C2.57328 12.2 2.5675 11.4 2.83328 10.5333L4.23328 6C4.41105 5.42222 4.72794 4.94444 5.18394 4.56667C5.63994 4.18889 6.1675 4 6.76661 4H25.2999C25.8999 4 26.4222 4.18356 26.8666 4.55067C27.3111 4.91778 27.6333 5.40089 27.8333 6L29.2333 10.5333C29.4999 11.4 29.4946 12.1889 29.2173 12.9C28.9399 13.6111 28.5453 14.2222 28.0333 14.7333ZM18.9666 13.3333C19.5666 13.3333 20.0222 13.128 20.3333 12.7173C20.6444 12.3067 20.7666 11.8453 20.6999 11.3333L19.9666 6.66667H17.3666V11.6C17.3666 12.0667 17.5222 12.4724 17.8333 12.8173C18.1444 13.1622 18.5222 13.3342 18.9666 13.3333ZM12.9666 13.3333C13.4777 13.3333 13.8946 13.1609 14.2173 12.816C14.5399 12.4711 14.7008 12.0658 14.6999 11.6V6.66667H12.0999L11.3666 11.3333C11.2777 11.8667 11.3942 12.3333 11.7159 12.7333C12.0377 13.1333 12.4546 13.3333 12.9666 13.3333ZM7.03328 13.3333C7.43328 13.3333 7.78305 13.1889 8.08261 12.9C8.38216 12.6111 8.56572 12.2444 8.63328 11.8L9.36661 6.66667H6.76661L5.43328 11.1333C5.29994 11.5778 5.37194 12.0556 5.64928 12.5667C5.92661 13.0778 6.38794 13.3333 7.03328 13.3333ZM25.0333 13.3333C25.6777 13.3333 26.1444 13.0778 26.4333 12.5667C26.7222 12.0556 26.7888 11.5778 26.6333 11.1333L25.2333 6.66667H22.6999L23.4333 11.8C23.4999 12.2444 23.6835 12.6111 23.9839 12.9C24.2844 13.1889 24.6342 13.3333 25.0333 13.3333ZM6.69994 25.3333H25.3666V15.9333C25.2555 15.9778 25.1835 16 25.1506 16H25.0333C24.4333 16 23.9057 15.9 23.4506 15.7C22.9955 15.5 22.5453 15.1778 22.0999 14.7333C21.6999 15.1333 21.2444 15.4444 20.7333 15.6667C20.2222 15.8889 19.6777 16 19.0999 16C18.4999 16 17.9386 15.8889 17.4159 15.6667C16.8933 15.4444 16.4324 15.1333 16.0333 14.7333C15.6555 15.1333 15.2168 15.4444 14.7173 15.6667C14.2177 15.8889 13.6786 16 13.0999 16C12.4555 16 11.8724 15.8889 11.3506 15.6667C10.8288 15.4444 10.3675 15.1333 9.96661 14.7333C9.49994 15.2 9.03905 15.528 8.58394 15.7173C8.12883 15.9067 7.61194 16.0009 7.03328 16H6.88394C6.82794 16 6.76661 15.9778 6.69994 15.9333V25.3333Z" fill="#482CC7"/>
</svg>
