<svg width="32" height="32" viewBox="0 0 32 32" fill="none" xmlns="http://www.w3.org/2000/svg">
<path d="M28.688 2H3.312C2.5874 2 2 2.5874 2 3.312V28.688C2 29.4126 2.5874 30 3.312 30H28.688C29.4126 30 30 29.4126 30 28.688V3.312C30 2.5874 29.4126 2 28.688 2Z" fill="#3178C6"/>
<path fill-rule="evenodd" clip-rule="evenodd" d="M18.245 23.759V26.827C18.8025 27.102 19.3965 27.2957 20.009 27.402C20.7168 27.5324 21.4352 27.5967 22.155 27.594C22.8565 27.5971 23.5563 27.5264 24.243 27.383C24.8595 27.2586 25.4478 27.0213 25.978 26.683C26.4704 26.3652 26.8762 25.9302 27.159 25.417C27.6655 24.3543 27.7323 23.1347 27.345 22.023C27.1817 21.6072 26.9381 21.2276 26.628 20.906C26.2957 20.5635 25.9178 20.2684 25.505 20.029C25.0301 19.7507 24.5366 19.5055 24.028 19.295C23.628 19.129 23.268 18.9677 22.948 18.811C22.6638 18.6749 22.3918 18.5147 22.135 18.332C21.934 18.1908 21.7594 18.0155 21.619 17.814C21.4984 17.6307 21.4353 17.4154 21.438 17.196C21.4354 16.994 21.4917 16.7955 21.6 16.625C21.7177 16.4465 21.8747 16.2974 22.059 16.189C22.284 16.0557 22.5292 15.9601 22.785 15.906C23.0988 15.8362 23.4195 15.8026 23.741 15.806C24.0113 15.8071 24.2813 15.8265 24.549 15.864C24.8382 15.9021 25.1243 15.9613 25.405 16.041C25.6907 16.1202 25.9701 16.2205 26.241 16.341C26.5037 16.4584 26.7551 16.5996 26.992 16.763V13.9C26.4991 13.7135 25.988 13.5794 25.467 13.5C24.8379 13.4084 24.2027 13.3652 23.567 13.371C22.8721 13.3676 22.1793 13.4464 21.503 13.606C20.8915 13.7449 20.3101 13.9932 19.787 14.339C19.3008 14.6631 18.8993 15.0989 18.616 15.61C18.3159 16.1776 18.1675 16.8131 18.185 17.455C18.1639 18.3036 18.4433 19.1324 18.974 19.795C19.6262 20.5291 20.4486 21.0919 21.369 21.434C21.789 21.6073 22.1807 21.777 22.544 21.943C22.8717 22.089 23.1868 22.262 23.486 22.46C23.7268 22.6175 23.9385 22.8154 24.112 23.045C24.264 23.2537 24.3447 23.5058 24.342 23.764C24.3434 23.9575 24.2937 24.1479 24.198 24.316C24.0906 24.4959 23.9414 24.6472 23.763 24.757C23.5386 24.8934 23.2933 24.992 23.037 25.049C22.7029 25.1235 22.3612 25.1587 22.019 25.154C21.3473 25.1522 20.6811 25.0338 20.05 24.804C19.391 24.5656 18.7798 24.2118 18.245 23.759ZM13.091 16.121H17.091V13.594H5.93799V16.121H9.91999V27.375H13.091V16.121Z" fill="white"/>
</svg>
