<svg width="32" height="32" viewBox="0 0 32 32" fill="none" xmlns="http://www.w3.org/2000/svg">
<g clip-path="url(#clip0_63_2)">
<path d="M31.0799 1.07067L30.3293 0.510667L28.8493 2.096L27.6613 0.381333L26.9786 0.694667L27.9173 3.092L27.4826 3.55867L24.1093 0L23.3439 0.378667L26.3439 6.82667L23.5333 7.81467H23.4666L21.9426 6.00267L20.4173 7.816H11.5826L10.0573 6.00267L8.52926 7.82H8.47992L5.65325 6.82667L8.65459 0.378667L7.89192 0L4.51859 3.55733L4.08259 3.092L5.02259 0.694667L4.33992 0.38L3.15326 2.096L1.67059 0.509333L0.919922 1.072L3.22659 4.92L2.03992 6.172L2.45459 9.33867L5.20259 10.388L5.19992 11.756H2.59592V12.348L3.60259 13.7853L5.19859 14.3627V23.6573L9.27459 29.724L10.2093 32L11.6773 29.8587L13.1999 32L14.5319 29.8587L15.9999 32L17.4693 29.8587L18.7999 32L20.3213 29.8587L21.7906 32L22.7253 29.7253L26.8026 23.6587V14.3627L28.3973 13.7853L29.4053 12.348V11.756H26.8026L26.8066 10.3827L29.5453 9.33733L29.9599 6.17067L28.7733 4.91867L31.0799 1.07067ZM19.1733 26.028H10.7106L11.7679 23.8747L12.8266 26.028L13.8839 24.584L14.9413 26.028L15.9999 24.584L17.0573 26.028L18.1159 24.584L19.1733 26.028ZM19.1733 26.028L20.2306 23.8747L21.2893 26.028H19.1733ZM24.3546 16.1747L19.9546 17.62L19.7639 21.7013L15.9946 22.5373L12.2266 21.7013L12.0373 17.6213L7.63726 16.1747V13.9947L13.3253 15.608L13.2559 21.1093H18.7346L18.6653 15.6067L24.3533 13.9947L24.3546 16.1747Z" fill="white"/>
</g>
<defs>
<clipPath id="clip0_63_2">
<rect width="32" height="32" fill="white"/>
</clipPath>
</defs>
</svg>
