<svg width="43" height="43" viewBox="0 0 43 43" fill="none" xmlns="http://www.w3.org/2000/svg">
<rect width="42.6667" height="42.6665" rx="21.3332" fill="#F4F9FF"/>
<path d="M14.6667 9.78802C16.6917 8.61307 18.9921 7.9961 21.3334 8.00002C28.6974 8.00002 34.6667 13.9854 34.6667 21.368C34.6667 32.2374 23.7854 24.5587 21.6827 27.9014C21.156 28.7387 21.7254 29.7814 22.4227 30.4814C22.8412 30.9012 23.0762 31.4699 23.0762 32.0627C23.0762 32.6555 22.8412 33.2241 22.4227 33.644C21.7254 34.344 20.776 34.7614 19.796 34.648C13.156 33.884 8.00002 28.2294 8.00002 21.368C7.99605 19.0151 8.61477 16.7031 9.79335 14.6667" stroke="url(#paint0_linear_8_1295)" stroke-width="2" stroke-linecap="round"/>
<path d="M28.6667 22.6667C29.7713 22.6667 30.6667 21.7713 30.6667 20.6667C30.6667 19.5621 29.7713 18.6667 28.6667 18.6667C27.5621 18.6667 26.6667 19.5621 26.6667 20.6667C26.6667 21.7713 27.5621 22.6667 28.6667 22.6667Z" stroke="url(#paint1_linear_8_1295)" stroke-width="2"/>
<path d="M14 22.6667C15.1046 22.6667 16 21.7713 16 20.6667C16 19.5621 15.1046 18.6667 14 18.6667C12.8954 18.6667 12 19.5621 12 20.6667C12 21.7713 12.8954 22.6667 14 22.6667Z" stroke="url(#paint2_linear_8_1295)" stroke-width="2"/>
<path d="M20.1133 14.6667C20.1133 15.1971 19.9026 15.7058 19.5276 16.0809C19.1525 16.456 18.6438 16.6667 18.1133 16.6667C17.5829 16.6667 17.0742 16.456 16.6991 16.0809C16.3241 15.7058 16.1133 15.1971 16.1133 14.6667C16.1133 14.1363 16.3241 13.6275 16.6991 13.2525C17.0742 12.8774 17.5829 12.6667 18.1133 12.6667C18.6438 12.6667 19.1525 12.8774 19.5276 13.2525C19.9026 13.6275 20.1133 14.1363 20.1133 14.6667ZM26.6667 14.6667C26.6667 15.1971 26.456 15.7058 26.0809 16.0809C25.7058 16.456 25.1971 16.6667 24.6667 16.6667C24.1362 16.6667 23.6275 16.456 23.2525 16.0809C22.8774 15.7058 22.6667 15.1971 22.6667 14.6667C22.6667 14.1363 22.8774 13.6275 23.2525 13.2525C23.6275 12.8774 24.1362 12.6667 24.6667 12.6667C25.1971 12.6667 25.7058 12.8774 26.0809 13.2525C26.456 13.6275 26.6667 14.1363 26.6667 14.6667Z" stroke="url(#paint3_linear_8_1295)" stroke-width="2"/>
<defs>
<linearGradient id="paint0_linear_8_1295" x1="8" y1="21.3332" x2="34.6667" y2="21.3332" gradientUnits="userSpaceOnUse">
<stop offset="0.485577" stop-color="#482CC7"/>
<stop offset="1" stop-color="#A805D0"/>
</linearGradient>
<linearGradient id="paint1_linear_8_1295" x1="26.6667" y1="20.6667" x2="30.6667" y2="20.6667" gradientUnits="userSpaceOnUse">
<stop offset="0.485577" stop-color="#482CC7"/>
<stop offset="1" stop-color="#A805D0"/>
</linearGradient>
<linearGradient id="paint2_linear_8_1295" x1="12" y1="20.6667" x2="16" y2="20.6667" gradientUnits="userSpaceOnUse">
<stop offset="0.485577" stop-color="#482CC7"/>
<stop offset="1" stop-color="#A805D0"/>
</linearGradient>
<linearGradient id="paint3_linear_8_1295" x1="16.1133" y1="14.6667" x2="26.6667" y2="14.6667" gradientUnits="userSpaceOnUse">
<stop offset="0.485577" stop-color="#482CC7"/>
<stop offset="1" stop-color="#A805D0"/>
</linearGradient>
</defs>
</svg>
