<svg width="32" height="32" viewBox="0 0 32 32" fill="none" xmlns="http://www.w3.org/2000/svg">
<g clip-path="url(#clip0_65_5)">
<path d="M24.5 0H7.5C3.35786 0 0 3.35786 0 7.5V24.5C0 28.6421 3.35786 32 7.5 32H24.5C28.6421 32 32 28.6421 32 24.5V7.5C32 3.35786 28.6421 0 24.5 0Z" fill="#0073AA"/>
<path d="M5.27686 15.9994C5.27686 20.2437 7.74348 23.9117 11.3202 25.65L6.20523 11.6355C5.59222 13.0086 5.27587 14.4956 5.27686 15.9994ZM23.2386 15.4582C23.2386 14.1331 22.7626 13.2154 22.3544 12.501C21.8107 11.6177 21.3012 10.8697 21.3012 9.98648C21.3012 9.00073 22.0489 8.08323 23.1019 8.08323C23.1495 8.08323 23.1945 8.08911 23.2409 8.09173C21.3331 6.34398 18.7915 5.27686 15.9997 5.27686C12.2537 5.27686 8.95786 7.19885 7.04061 10.1101C7.29211 10.1176 7.52923 10.123 7.73061 10.123C8.85223 10.123 10.5884 9.98673 10.5884 9.98673C11.1664 9.95273 11.2346 10.8017 10.6571 10.8701C10.6571 10.8701 10.0762 10.9385 9.42986 10.9724L13.3346 22.5871L15.6812 15.5492L14.0106 10.972C13.4332 10.9381 12.8862 10.8697 12.8862 10.8697C12.3084 10.8359 12.3761 9.95236 12.954 9.98648C12.954 9.98648 14.7247 10.1225 15.7784 10.1225C16.8999 10.1225 18.6361 9.98648 18.6361 9.98648C19.2146 9.95236 19.2825 10.8014 18.7049 10.8697C18.7049 10.8697 18.1227 10.9381 17.4776 10.972L21.3527 22.4987L22.4222 18.9247C22.8859 17.4415 23.2386 16.3762 23.2386 15.4582Z" fill="white"/>
<path d="M16.188 16.9372L12.9707 26.286C13.9543 26.5757 14.9744 26.7228 15.9998 26.7229C17.2126 26.7233 18.4166 26.5177 19.5606 26.115C19.5308 26.0681 19.5053 26.0186 19.4843 25.9672L16.188 16.9372ZM25.4087 10.8547C25.4574 11.2202 25.4815 11.5885 25.481 11.9572C25.481 13.0454 25.2777 14.2686 24.6656 15.7981L21.3902 25.268C24.5781 23.409 26.7223 19.9554 26.7223 15.9995C26.7225 14.1351 26.2463 12.382 25.4087 10.8547Z" fill="white"/>
<path d="M15.9998 3.5C9.1075 3.5 3.5 9.10713 3.5 15.9993C3.5 22.8923 9.1075 28.4991 15.9998 28.4991C22.8916 28.4991 28.5 22.8923 28.5 15.9993C28.4997 9.10713 22.8916 3.5 15.9998 3.5ZM15.9998 27.9263C9.4235 27.9263 4.07312 22.5758 4.07312 15.9993C4.07312 9.42313 9.42338 4.07312 15.9998 4.07312C22.5756 4.07312 27.9256 9.42313 27.9256 15.9993C27.9256 22.5758 22.5756 27.9263 15.9998 27.9263Z" fill="white"/>
</g>
<defs>
<clipPath id="clip0_65_5">
<rect width="32" height="32" fill="white"/>
</clipPath>
</defs>
</svg>
