<svg width="32" height="32" viewBox="0 0 32 32" fill="none" xmlns="http://www.w3.org/2000/svg">
<path d="M16.0001 2.66675C8.65341 2.66675 2.66675 8.65341 2.66675 16.0001C2.66675 23.3467 8.65341 29.3334 16.0001 29.3334C23.3467 29.3334 29.3334 23.3467 29.3334 16.0001C29.3334 8.65341 23.3467 2.66675 16.0001 2.66675ZM4.01341 16.0001C4.01341 14.2667 4.38675 12.6134 5.05341 11.1201L10.7734 26.7867C6.77341 24.8401 4.01341 20.7467 4.01341 16.0001ZM16.0001 27.9867C14.8267 27.9867 13.6934 27.8134 12.6134 27.4934L16.2134 17.0401L19.8934 27.1334C19.9201 27.1867 19.9467 27.2534 19.9734 27.2934C18.7334 27.7467 17.4001 27.9867 16.0001 27.9867ZM17.6534 10.3734C18.3734 10.3334 19.0267 10.2534 19.0267 10.2534C19.6667 10.1734 19.6001 9.22675 18.9467 9.26675C18.9467 9.26675 17.0001 9.41341 15.7467 9.41341C14.5734 9.41341 12.5867 9.26675 12.5867 9.26675C11.9467 9.24008 11.8667 10.2267 12.5201 10.2667C12.5201 10.2667 13.1334 10.3467 13.7734 10.3867L15.6401 15.5067L13.0134 23.3734L8.65341 10.3734C9.37341 10.3467 10.0267 10.2667 10.0267 10.2667C10.6667 10.1867 10.6001 9.24008 9.94675 9.28008C9.94675 9.28008 8.00008 9.42675 6.74675 9.42675C6.52008 9.42675 6.25341 9.42675 5.97341 9.41341C8.13341 6.16008 11.8134 4.01341 16.0001 4.01341C19.1201 4.01341 21.9601 5.20008 24.0934 7.16008C24.0401 7.16008 23.9867 7.14675 23.9334 7.14675C22.7601 7.14675 21.9201 8.17341 21.9201 9.28008C21.9201 10.2667 22.4934 11.1067 23.0934 12.0934C23.5467 12.8934 24.0801 13.9201 24.0801 15.4001C24.0801 16.4267 23.6801 17.6134 23.1734 19.2801L21.9734 23.2801L17.6534 10.3734ZM26.5201 10.2534C28.017 12.9944 28.385 16.2114 27.5458 19.2197C26.7066 22.2279 24.7264 24.7898 22.0267 26.3601L25.6934 15.7734C26.3734 14.0667 26.6001 12.6934 26.6001 11.4801C26.6001 11.0401 26.5734 10.6267 26.5201 10.2534Z" fill="#ECF9FF"/>
</svg>
