<svg width="32" height="32" viewBox="0 0 32 32" fill="none" xmlns="http://www.w3.org/2000/svg">
<g clip-path="url(#clip0_60_8)">
<path d="M3.44532 4.77596C3.65603 4.19828 4.03916 3.69931 4.54284 3.34659C5.04652 2.99387 5.64642 2.80444 6.26132 2.80396H25.7507C27.0147 2.80396 28.1427 3.59729 28.5707 4.78662L31.824 13.8226C32.0265 14.3866 32.0554 14.9982 31.9071 15.5788C31.7588 16.1593 31.4401 16.6822 30.992 17.08L18.1787 28.44C17.6347 28.9217 16.9344 29.1897 16.2078 29.1941C15.4812 29.1985 14.7777 28.9391 14.228 28.464L1.03466 17.0306C0.576503 16.6329 0.249692 16.1057 0.097347 15.5184C-0.0549985 14.9312 -0.0257186 14.3116 0.181323 13.7413L3.44532 4.77596ZM19.496 11.292L7.34932 18.6746L15.0027 25.3506C15.2972 25.6077 15.6752 25.7487 16.0662 25.7472C16.4571 25.7458 16.8341 25.6019 17.1267 25.3426L24.6507 18.6746H19.2L27.5187 13.3986C28.1693 12.9613 28.4387 12.136 28.1733 11.3986L26.52 6.80396C26.3764 6.40511 26.1125 6.06068 25.7648 5.81826C25.417 5.57584 25.0026 5.44738 24.5787 5.45062H7.39332C6.97591 5.45373 6.56943 5.5844 6.2284 5.82511C5.88736 6.06581 5.62808 6.40503 5.48532 6.79729L3.84799 11.2906L19.496 11.292Z" fill="#482CC7"/>
</g>
<defs>
<clipPath id="clip0_60_8">
<rect width="32" height="32" fill="white"/>
</clipPath>
</defs>
</svg>
