<svg width="55" height="12" viewBox="0 0 55 12" fill="none" xmlns="http://www.w3.org/2000/svg">
<g clip-path="url(#clip0_60_14)">
<path d="M6.71067 9.53157H0.990667C0.794814 9.53206 0.603247 9.47425 0.44036 9.3655C0.277472 9.25675 0.150636 9.10198 0.076 8.92091C0.000803148 8.7404 -0.0190648 8.54163 0.0189183 8.34981C0.0569014 8.158 0.151023 7.9818 0.289333 7.84357L4.25333 3.87957H1.41333C1.03849 3.87957 0.679007 3.73067 0.413956 3.46562C0.148904 3.20057 0 2.84108 0 2.46624H5.276C5.67733 2.46624 6.036 2.70624 6.19067 3.07691C6.2657 3.25753 6.28535 3.45639 6.24713 3.64821C6.20891 3.84003 6.11453 4.01617 5.976 4.15424L2.01333 8.11957H5.29867C6.07867 8.11957 6.712 8.75291 6.712 9.53291L6.71067 9.53157ZM32 5.11691C31.9984 4.56022 31.8284 4.01705 31.5123 3.55882C31.1962 3.1006 30.7488 2.7488 30.2289 2.54968C29.7091 2.35057 29.1411 2.31347 28.5998 2.44328C28.0584 2.57308 27.569 2.8637 27.196 3.27691C26.9382 2.98893 26.6225 2.75861 26.2696 2.60099C25.9167 2.44338 25.5345 2.36202 25.148 2.36224C23.628 2.36224 22.3933 3.59691 22.3933 5.11691V9.53157C22.7682 9.53157 23.1277 9.38267 23.3927 9.11762C23.6578 8.85257 23.8067 8.49308 23.8067 8.11824V5.11691C23.8067 4.76099 23.9481 4.41964 24.1997 4.16797C24.4514 3.91629 24.7927 3.77491 25.1487 3.77491C25.5046 3.77491 25.8459 3.91629 26.0976 4.16797C26.3493 4.41964 26.4907 4.76099 26.4907 5.11691V8.11824C26.4907 8.89957 27.1227 9.53157 27.904 9.53157V5.11691C27.904 4.76116 28.0453 4.41999 28.2969 4.16844C28.5484 3.91689 28.8896 3.77557 29.2453 3.77557C29.6011 3.77557 29.9423 3.91689 30.1938 4.16844C30.4453 4.41999 30.5867 4.76116 30.5867 5.11691V8.11824C30.5867 8.89957 31.22 9.53157 32 9.53157V5.11691ZM21.6867 5.99957C21.6867 6.47732 21.5926 6.95039 21.4097 7.39177C21.2269 7.83316 20.9589 8.23421 20.6211 8.57203C20.2833 8.90985 19.8823 9.17782 19.4409 9.36065C18.9995 9.54347 18.5264 9.63757 18.0487 9.63757C17.5709 9.63757 17.0978 9.54347 16.6565 9.36065C16.2151 9.17782 15.814 8.90985 15.4762 8.57203C15.1384 8.23421 14.8704 7.83316 14.6876 7.39177C14.5048 6.95039 14.4107 6.47732 14.4107 5.99957C14.4107 5.03472 14.794 4.10938 15.4762 3.42712C16.1585 2.74486 17.0838 2.36157 18.0487 2.36157C19.0135 2.36157 19.9389 2.74486 20.6211 3.42712C21.3034 4.10938 21.6867 5.03472 21.6867 5.99957ZM20.2733 5.99957C20.2733 5.40938 20.0389 4.84336 19.6215 4.42602C19.2042 4.00869 18.6382 3.77424 18.048 3.77424C17.4578 3.77424 16.8918 4.00869 16.4745 4.42602C16.0571 4.84336 15.8227 5.40938 15.8227 5.99957C15.8227 6.58977 16.0571 7.15579 16.4745 7.57312C16.8918 7.99045 17.4578 8.22491 18.048 8.22491C18.6382 8.22491 19.2042 7.99045 19.6215 7.57312C20.0389 7.15579 20.2733 6.58977 20.2733 5.99957ZM13.8467 5.99957C13.8467 6.96461 13.4633 7.89012 12.7809 8.5725C12.0985 9.25488 11.173 9.63824 10.208 9.63824C9.24297 9.63824 8.31746 9.25488 7.63507 8.5725C6.95269 7.89012 6.56933 6.96461 6.56933 5.99957C6.56933 5.03472 6.95262 4.10938 7.63488 3.42712C8.31714 2.74486 9.24248 2.36157 10.2073 2.36157C11.1722 2.36157 12.0975 2.74486 12.7798 3.42712C13.462 4.10938 13.8453 5.03472 13.8453 5.99957H13.8467ZM12.4333 5.99957C12.4333 5.70734 12.3758 5.41796 12.2639 5.14797C12.1521 4.87798 11.9882 4.63267 11.7815 4.42602C11.5749 4.21938 11.3296 4.05547 11.0596 3.94363C10.7896 3.8318 10.5002 3.77424 10.208 3.77424C9.91577 3.77424 9.62639 3.8318 9.3564 3.94363C9.08641 4.05547 8.84109 4.21938 8.63445 4.42602C8.42781 4.63267 8.26389 4.87798 8.15206 5.14797C8.04023 5.41796 7.98267 5.70734 7.98267 5.99957C7.98267 6.58977 8.21712 7.15579 8.63445 7.57312C9.05178 7.99045 9.61781 8.22491 10.208 8.22491C10.7982 8.22491 11.3642 7.99045 11.7815 7.57312C12.1989 7.15579 12.4333 6.58977 12.4333 5.99957Z" fill="#482CC7"/>
<path d="M42.2314 5.98722L41.0595 6.11506C41.0263 5.99669 40.9683 5.88542 40.8855 5.78125C40.805 5.67708 40.6961 5.59304 40.5588 5.52912C40.4215 5.4652 40.2534 5.43324 40.0545 5.43324C39.787 5.43324 39.5621 5.49124 39.3798 5.60724C39.1999 5.72325 39.1111 5.87358 39.1135 6.05824C39.1111 6.21686 39.1691 6.34588 39.2875 6.44531C39.4082 6.54474 39.6071 6.62642 39.8841 6.69034L40.8145 6.8892C41.3306 7.00047 41.7141 7.17685 41.965 7.41832C42.2183 7.6598 42.3462 7.97585 42.3485 8.36648C42.3462 8.70975 42.2456 9.01278 42.0467 9.27557C41.8502 9.53598 41.5768 9.73958 41.2264 9.88636C40.876 10.0331 40.4735 10.1065 40.019 10.1065C39.3514 10.1065 38.814 9.96686 38.4068 9.6875C37.9996 9.40578 37.7569 9.01397 37.6788 8.51207L38.9324 8.39134C38.9892 8.63755 39.1099 8.82339 39.2946 8.94886C39.4792 9.07434 39.7195 9.13707 40.0154 9.13707C40.3208 9.13707 40.5659 9.07434 40.7505 8.94886C40.9376 8.82339 41.0311 8.66832 41.0311 8.48366C41.0311 8.32741 40.9707 8.19839 40.85 8.09659C40.7316 7.99479 40.5469 7.91667 40.296 7.86222L39.3656 7.6669C38.8424 7.558 38.4553 7.37453 38.2044 7.11648C37.9534 6.85606 37.8291 6.52699 37.8315 6.12926C37.8291 5.79309 37.9203 5.50189 38.1049 5.25568C38.292 5.0071 38.5512 4.81534 38.8826 4.6804C39.2164 4.54309 39.6011 4.47443 40.0368 4.47443C40.676 4.47443 41.179 4.61056 41.546 4.88281C41.9153 5.15507 42.1438 5.5232 42.2314 5.98722ZM45.4327 10.0959C45.0042 10.0959 44.6207 9.9858 44.2821 9.76562C43.9436 9.54545 43.6761 9.22585 43.4796 8.80682C43.2831 8.38778 43.1848 7.87879 43.1848 7.27983C43.1848 6.67377 43.2843 6.16241 43.4831 5.74574C43.6844 5.3267 43.9554 5.01065 44.2963 4.79759C44.6373 4.58215 45.0172 4.47443 45.4363 4.47443C45.7559 4.47443 46.0186 4.52888 46.2246 4.63778C46.4306 4.74432 46.5939 4.87334 46.7147 5.02486C46.8354 5.17401 46.9289 5.31487 46.9952 5.44744H47.0485V2.72727H48.3375V10H47.0733V9.14062H46.9952C46.9289 9.2732 46.833 9.41406 46.7076 9.56321C46.5821 9.70999 46.4164 9.83546 46.2104 9.93963C46.0044 10.0438 45.7452 10.0959 45.4327 10.0959ZM45.7914 9.04119C46.0636 9.04119 46.2956 8.9678 46.4874 8.82102C46.6792 8.67187 46.8248 8.46473 46.9242 8.19957C47.0236 7.93442 47.0733 7.62547 47.0733 7.27273C47.0733 6.91998 47.0236 6.6134 46.9242 6.35298C46.8271 6.09257 46.6827 5.89015 46.4909 5.74574C46.3016 5.60133 46.0684 5.52912 45.7914 5.52912C45.5049 5.52912 45.2658 5.60369 45.074 5.75284C44.8823 5.90199 44.7379 6.10795 44.6408 6.37074C44.5437 6.63352 44.4952 6.93419 44.4952 7.27273C44.4952 7.61364 44.5437 7.91785 44.6408 8.18537C44.7402 8.45052 44.8858 8.66004 45.0776 8.81392C45.2717 8.96544 45.5096 9.04119 45.7914 9.04119ZM50.8793 8.28835L50.8757 6.73651H51.0817L53.0419 4.54545H54.544L52.1328 7.23011H51.8665L50.8793 8.28835ZM49.7074 10V2.72727H50.9929V10H49.7074ZM53.1307 10L51.3551 7.51776L52.2216 6.61222L54.6683 10H53.1307Z" fill="#482CC7"/>
</g>
<defs>
<clipPath id="clip0_60_14">
<rect width="55" height="12" fill="white"/>
</clipPath>
</defs>
</svg>
